<svg width="427" height="395" viewBox="0 0 427 395" fill="none" xmlns="http://www.w3.org/2000/svg">
<path d="M427 44.0606C427 44.0606 363.215 0.667087 230.313 0.00276483C186.018 -0.218676 106.424 12.864 58.9276 38.374C3.60262 68.1002 1.20136 106.25 1.20136 106.25L1.19336 111.325C4.18693 121.432 12.6554 145.56 28.3596 158.43C48.5621 174.994 60.5364 181.673 60.5364 181.673L67.2599 177.474L420.101 46.6647L427 44.0606Z" fill="url(#paint0_linear_66_572)"/>
<path d="M4.1709 295.777C4.1709 295.777 28.6237 215.03 203.419 199.503C324.114 188.776 420.108 235.66 420.108 235.66V46.6647C420.108 46.6647 364.343 6.86743 231.442 6.20045C187.147 5.98167 107.553 19.0644 60.0561 44.5743C4.73119 74.3094 4.57111 114.328 4.57111 114.328L4.1709 295.777Z" fill="url(#paint1_linear_66_572)"/>
<g opacity="0.3">
<path opacity="0.56" d="M184.208 42.4395V52.0323L95.5212 73.326L95.3291 63.4675L184.208 42.4395ZM184.208 57.214V66.8068L95.5212 88.0917L95.3291 78.2508L184.208 57.214ZM184.208 71.9796V81.5724L95.5212 102.866L95.3291 93.0165L184.208 71.9796ZM184.208 86.7542V96.347L95.5212 117.632L95.3291 107.782L184.208 86.7542ZM184.208 101.529V111.121L144.451 121.033L144.259 111.183L184.208 101.529ZM184.208 116.294V125.887L95.5212 147.172L95.3291 137.331L184.208 116.294ZM184.208 131.069V140.662L95.5212 161.947L95.3291 152.097L184.208 131.069ZM184.208 145.835V155.427L95.5212 176.721L95.3291 166.871L184.208 145.835ZM184.208 160.609V170.202L95.5212 191.487L95.3291 181.646L184.208 160.609Z" fill="white"/>
</g>
<g opacity="0.7">
<path d="M347.733 175.765L380.599 154.763L413.464 175.765L380.142 196.465L347.733 175.765Z" fill="#2B73B5"/>
<path d="M347.733 163.266L380.599 142.274L413.464 163.266L380.142 183.976L347.733 163.266Z" fill="#56ABDD"/>
<path d="M347.733 147.588L380.599 126.595L413.464 147.588L380.142 168.297L347.733 147.588Z" fill="#951AAC"/>
<path d="M347.733 134.054L380.599 113.061L413.464 134.054L380.142 154.763L347.733 134.054Z" fill="#741AAC"/>
<path d="M347.733 120.528L380.599 99.5264L413.464 120.528L380.142 141.228L347.733 120.528Z" fill="#A91AAC"/>
<path d="M347.733 107.747L380.599 86.7451L413.464 107.747L380.142 128.447L347.733 107.747Z" fill="#00DDD2"/>
<path d="M347.733 94.9652L380.599 73.9727L413.464 94.9652L380.142 115.674L347.733 94.9652Z" fill="#00CCBD"/>
<path d="M347.733 82.1924L380.599 61.1909L413.464 82.1924L380.142 102.893L347.733 82.1924Z" fill="#00DDD2"/>
</g>
<g opacity="0.6">
<path opacity="0.56" d="M287.791 20.8628V26.7708L342.396 37.648L342.516 31.5805L287.791 20.8628ZM287.791 29.9596V35.8588L342.396 46.7448L342.516 40.6773L287.791 29.9596ZM287.791 39.0475V44.9555L342.396 55.8327L342.516 49.7652L287.791 39.0475ZM287.791 48.1443V54.0523L342.396 64.9295L342.516 58.862L287.791 48.1443ZM287.791 57.2411V63.1402L312.276 68.2511L312.388 62.1836L287.791 57.2411ZM287.791 66.329V72.237L342.396 83.123L342.516 77.0556L287.791 66.329ZM287.791 75.4258V81.3338L342.396 92.211L342.516 86.1435L287.791 75.4258ZM287.791 84.5225V90.4217L342.396 101.308L342.516 95.2403L287.791 84.5225ZM287.791 93.6105V99.5185L342.396 110.405L342.516 104.337L287.791 93.6105Z" fill="white"/>
</g>
<g opacity="0.6">
<path opacity="0.56" d="M287.791 107.322V113.23L342.396 124.116L342.516 118.048L287.791 107.322ZM287.791 116.419V122.327L342.396 133.204L342.516 127.136L287.791 116.419ZM287.791 125.515V131.415L342.396 142.301L342.516 136.233L287.791 125.515ZM287.791 134.603V140.511L342.396 151.397L342.516 145.33L287.791 134.603ZM287.791 143.7V149.608L312.276 154.71L312.388 148.643L287.791 143.7ZM287.791 152.797V158.696L342.396 169.582L342.516 163.515L287.791 152.797ZM287.791 161.885V167.793L342.396 178.679L342.516 172.611L287.791 161.885ZM287.791 170.982V176.89L342.396 187.767L342.516 181.699L287.791 170.982ZM287.791 180.078V185.978L342.396 196.864L342.516 190.796L287.791 180.078Z" fill="white"/>
</g>
<path d="M38.1078 143.638C48.1381 143.638 56.2693 128.529 56.2693 109.891C56.2693 91.2524 48.1381 76.1431 38.1078 76.1431C28.0775 76.1431 19.9463 91.2524 19.9463 109.891C19.9463 128.529 28.0775 143.638 38.1078 143.638Z" fill="#701AAC"/>
<path d="M40.8539 221.249C50.8842 221.249 59.0154 206.139 59.0154 187.501C59.0154 168.863 50.8842 153.753 40.8539 153.753C30.8236 153.753 22.6924 168.863 22.6924 187.501C22.6924 206.139 30.8236 221.249 40.8539 221.249Z" fill="url(#paint2_linear_66_572)"/>
<path d="M214.456 143.133L213.84 175.109L226.078 174.401L226.703 142.451L214.456 143.133Z" fill="#00DDD2"/>
<path d="M203.057 127.863L214.455 143.133L213.839 175.109L201.929 158.749L203.057 127.863Z" fill="#00CCBD"/>
<path d="M203.059 127.862L215.089 127.074L226.703 142.451L214.457 143.133L203.059 127.862Z" fill="#00FFEC"/>
<path d="M240.1 113.956L238.939 173.515L251.178 172.815L252.338 113.274L240.1 113.956Z" fill="#951AAC"/>
<path d="M228.694 98.6855L240.1 113.956L238.94 173.515L227.029 157.164L228.694 98.6855Z" fill="#741AAC"/>
<path d="M228.695 98.6858L240.734 97.8975L252.34 113.274L240.101 113.956L228.695 98.6858Z" fill="#A91AAC"/>
<path d="M265.74 74.5487L263.819 173.586L276.066 172.886L277.987 73.8667L265.74 74.5487Z" fill="#56ABDD"/>
<path d="M254.343 59.2783L265.741 74.5489L263.82 173.586L251.91 157.226L254.343 59.2783Z" fill="#2B73B5"/>
<path d="M254.342 59.2786L266.372 58.4902L277.986 73.8671L265.74 74.5491L254.342 59.2786Z" fill="#009BDD"/>
<path d="M60.1435 365.823L60.5357 181.673C60.5357 181.673 45.3037 176.349 23.6524 154.17C2.00105 131.99 1.60084 104.036 1.60084 104.036L0 289.922C0 289.922 0.752394 310.498 18.0414 337.833C27.9826 353.546 44.9515 363.245 54.0123 367.568L60.1435 365.823Z" fill="url(#paint3_linear_66_572)"/>
<g opacity="0.8">
<path opacity="0.56" d="M5.41992 163.009V168.908L45.9691 201.868L46.0572 195.853L5.41992 163.009ZM5.41992 172.097V178.005L45.9691 210.964L46.0572 204.941L5.41992 172.097ZM5.41992 181.194V187.102L45.9691 220.061L46.0572 214.038L5.41992 181.194ZM5.41992 190.291V196.19L45.9691 229.149L46.0572 223.135L5.41992 190.291ZM5.41992 199.379V205.287L23.5974 220.292L23.6855 214.268L5.41992 199.379ZM5.41992 208.475V214.384L45.9691 247.343L46.0572 241.32L5.41992 208.475ZM5.41992 217.572V223.471L45.9691 256.431L46.0572 250.416L5.41992 217.572ZM5.41992 226.66V232.568L45.9691 265.527L46.0572 259.504L5.41992 226.66ZM5.41992 235.757V241.665L45.9691 274.624L46.0572 268.601L5.41992 235.757ZM5.41992 262.578V268.486L45.9691 301.445L46.0572 295.422L5.41992 262.578ZM5.41992 271.675V277.574L45.9691 310.533L46.0572 304.519L5.41992 271.675ZM5.41992 280.763V286.671L45.9691 319.63L46.0572 313.607L5.41992 280.763ZM5.41992 289.859V295.767L45.9691 328.727L46.0572 322.703L5.41992 289.859Z" fill="white"/>
</g>
<path d="M1.60166 104.036L1.39355 128.332C9.3097 147.518 26.2386 175.1 60.5205 187.758L60.5365 181.673C60.5365 181.673 45.3045 176.349 23.6532 154.17C2.00988 131.99 1.60166 104.036 1.60166 104.036Z" fill="url(#paint4_linear_66_572)"/>
<path d="M60.5351 181.672L54.46 185.641V367.328L60.5591 365.982L60.5351 181.672Z" fill="url(#paint5_linear_66_572)"/>
<path fill-rule="evenodd" clip-rule="evenodd" d="M329.008 158.152C333.213 153.714 336.058 148.276 335.583 142.182C334.213 124.624 307.032 128.486 301.745 137.348C296.457 146.21 297.086 168.689 303.919 170.273C306.644 170.904 312.449 169.357 318.358 166.155L314.649 189.748H336.547L329.008 158.152Z" fill="#B28B67"/>
<path fill-rule="evenodd" clip-rule="evenodd" d="M306.679 131.504C307.18 131.235 308.23 130.667 308.761 130.462C308.887 130.412 309.768 129.847 309.792 129.854C310.459 130.056 312.39 130.803 312.556 131.449C312.581 131.498 312.607 131.544 312.631 131.584C312.905 132.031 313.156 132.49 313.395 132.954C313.921 133.972 314.375 135.037 314.808 136.093C315.652 138.15 316.385 140.255 317.06 142.365C317.746 144.513 318.329 146.685 318.981 148.842C319.919 151.945 321.12 154.972 322.052 158.074C322.647 160.055 322.978 162.059 322.822 164.097C322.82 164.122 322.819 164.146 322.817 164.171C322.816 164.181 322.815 164.191 322.814 164.202C322.787 164.515 322.749 164.829 322.699 165.144C322.654 165.414 322.61 165.684 322.563 165.954C321.712 164.428 321.062 162.746 320.372 161.15C320.305 160.993 320.24 160.836 320.177 160.678C319.955 160.354 319.728 160.033 319.499 159.713C318.053 157.694 316.601 155.682 315.215 153.626C312.721 149.929 310.25 146.153 307.294 142.758C306.421 141.756 305.527 140.768 304.665 139.758C304.175 139.182 303.697 138.598 303.235 138.002C302.904 137.577 301.467 136.093 301.987 135.202C302.254 134.746 305.378 132.203 306.679 131.504Z" fill="#2C2C2C"/>
<path fill-rule="evenodd" clip-rule="evenodd" d="M308.603 130.536C308.115 130.683 308.352 129.77 308.825 129.449C311.014 127.961 319.381 127.421 326.663 128.78C331.542 129.691 337.215 131.957 341.111 134.871C344.624 137.498 347.039 141.709 348.283 145.777C349.589 150.049 349.787 154.502 349.059 158.883C348.899 159.845 348.556 160.762 348.365 161.704C348.149 162.764 348.039 163.785 347.654 164.817C347.419 165.449 347.019 166.068 346.819 166.704C346.59 167.428 346.729 168.099 346.896 168.836C347.169 170.038 347.506 171.238 347.986 172.385C348.706 174.109 349.581 175.723 350.129 177.512C350.858 179.892 353.909 187.636 351.68 189.747H309.236C310.305 187.126 313.513 184.04 314.162 181.234C314.545 179.581 314.727 175.971 314.767 175.839C315.723 169.91 317.591 167.079 318.76 166.052C319.93 165.024 321.488 164.708 321.568 163.817C321.9 160.131 320.27 156.598 319.075 153.158C317.65 149.058 316.606 144.856 315.137 140.769C314.487 138.96 311.136 129.77 308.603 130.536Z" fill="#8991DC"/>
<path fill-rule="evenodd" clip-rule="evenodd" d="M323.484 134.776C325.085 139.343 325.429 141.781 325.085 148.02H325.87C327.337 142.132 326.031 136.589 324.471 134.776H323.484ZM344.957 146.562C341.974 153.07 340.614 156.913 332.285 162.179L332.928 162.584C341.197 158.37 343.604 153.344 345.584 146.833L344.957 146.562ZM332.702 139.939C331.347 149.176 330.952 154.453 323.894 164.557L324.645 164.764C331.908 155.966 333.06 148.785 333.403 139.99L332.702 139.939ZM340.497 167.378L339.855 166.676C331.089 169.145 332.066 174.242 321.025 179.405L321.948 179.907C331.615 176.32 333.875 168.625 340.497 167.378Z" fill="black" fill-opacity="0.2"/>
<path fill-rule="evenodd" clip-rule="evenodd" d="M376.126 292.305H305.639L296.402 394.042H401.329L376.126 292.305Z" fill="#C5CFD6"/>
<path fill-rule="evenodd" clip-rule="evenodd" d="M376.126 292.305H354.447L341.472 394.042H401.329L376.126 292.305Z" fill="black" fill-opacity="0.1"/>
<path fill-rule="evenodd" clip-rule="evenodd" d="M225.277 274.874C217.762 270.816 205.153 276.03 205.161 281.834C205.187 299.198 222.81 381.038 223.73 386.211C224.651 391.385 234.507 392.751 235.081 386.228C235.995 375.849 237.692 339.918 235.994 323.287C235.293 316.422 234.538 309.884 233.795 304.051C243.043 319.068 257.344 340.568 276.7 368.553L287.208 364.236C278.957 339.789 272.191 322.531 266.91 312.46C257.868 295.217 249.39 280.45 245.822 275.248C240.209 267.067 230.439 269.921 225.277 274.874Z" fill="#B28B67"/>
<path fill-rule="evenodd" clip-rule="evenodd" d="M286.457 350.66L250.392 273.834C241.752 261.336 217.528 276.377 220.474 283.625C227.164 300.082 261.183 353.358 263.176 358.261L286.457 350.66Z" fill="#69A1AC"/>
<path fill-rule="evenodd" clip-rule="evenodd" d="M288.557 359.127C290.786 360.626 292.233 361.867 292.899 362.849C293.71 364.043 294.654 365.914 295.733 368.461C294.074 369.356 279.173 377.392 251.028 392.57C247.689 389.988 247.184 387.894 249.514 386.289C251.843 384.683 253.765 383.331 255.281 382.232L270.807 363.287C271.106 362.922 271.676 362.82 272.081 363.058C272.088 363.062 272.095 363.066 272.102 363.07L275.274 365.057C278.204 364.71 280.394 364.146 281.842 363.365C283.019 362.73 284.375 361.457 285.91 359.544C286.499 358.81 287.638 358.595 288.454 359.063C288.489 359.083 288.523 359.104 288.557 359.127Z" fill="#E4E4E4"/>
<path fill-rule="evenodd" clip-rule="evenodd" d="M237.389 382.064C238.41 384.514 238.92 386.348 238.92 387.564C238.92 389.044 238.646 391.203 238.098 394.041C236.189 394.041 219.035 394.041 186.636 394.041C185.299 390.066 186.071 387.919 188.952 387.602C191.833 387.285 194.227 386.999 196.133 386.744L220.051 377.155C220.512 376.971 221.051 377.157 221.256 377.571C221.26 377.578 221.263 377.585 221.266 377.592L222.804 380.946C225.471 382.065 227.639 382.624 229.306 382.624C230.661 382.624 232.532 382.132 234.919 381.148C235.836 380.77 236.919 381.132 237.339 381.956C237.357 381.991 237.374 382.028 237.389 382.064Z" fill="#E4E4E4"/>
<path fill-rule="evenodd" clip-rule="evenodd" d="M202.633 287.737C202.633 309.534 214.145 360.378 214.152 365.178L238.92 365.195C235.295 319.827 234.009 296.899 235.064 296.41C236.645 295.677 299.891 302.089 318.859 302.089C346.212 302.089 357.527 286.578 358.445 257.845H304.261C293.228 258.907 235.682 269.344 214.311 272.932C205.161 274.468 202.633 281.732 202.633 287.737Z" fill="#89C5CC"/>
<path fill-rule="evenodd" clip-rule="evenodd" d="M258.542 247.557L232.695 270.23C225.175 273.115 219.013 276.3 214.209 279.786C213.129 280.957 211.953 283.202 217.036 282.198C222.118 281.193 227.514 280.342 228.469 281.828C229.424 283.315 226.61 285.592 228.375 287.537C229.552 288.834 233.51 284.709 240.249 275.163L267.126 260.914L258.542 247.557ZM384.931 227.037L364.952 227.104C380.169 271.437 388.246 294.648 389.185 296.74C391.296 301.444 386.828 308.61 384.918 312.461C391.14 314.965 390.477 305.692 398.327 308.976C405.492 311.973 410.942 317.404 419.22 312.811C420.238 312.247 421.353 310.12 418.658 308.459C411.945 304.32 402.271 297.075 400.964 294.691C399.181 291.439 393.837 268.887 384.931 227.037Z" fill="#B28B67"/>
<path fill-rule="evenodd" clip-rule="evenodd" d="M324.051 176.072L316.162 174.855C303.733 214.361 239.875 241.291 235.955 256.059C234.517 261.475 238.852 264.213 236.613 265.863L246.868 272.613C248.605 270.792 252.31 274.124 260.05 271.793C267.789 269.462 324.051 222.851 324.051 176.072Z" fill="#DDE3E9"/>
<path fill-rule="evenodd" clip-rule="evenodd" d="M310.779 181.324C311.689 233.628 278.065 246.97 285.554 267.952C291.739 285.279 350.937 303.905 361.181 286.92C365.328 280.045 367.209 271.731 367.422 262.69C370.041 269.636 372.111 275.615 373.634 280.627C376.262 289.275 386.449 290.65 386.449 293.981L399.87 290.649C398.96 286.124 405.287 283.92 403.59 273.809C395.989 228.505 375.567 195.666 342.322 175.291L341.978 170.868C341.838 169.06 340.094 167.697 338.083 167.824L313.508 169.369C311.497 169.495 309.981 171.064 310.122 172.872L310.779 181.324Z" fill="#DDE3E9"/>
<defs>
<linearGradient id="paint0_linear_66_572" x1="1.19336" y1="9083.63" x2="42582.3" y2="9083.63" gradientUnits="userSpaceOnUse">
<stop stop-color="#A1BAFF"/>
<stop offset="0.4332" stop-color="white"/>
</linearGradient>
<linearGradient id="paint1_linear_66_572" x1="4.1709" y1="14485.1" x2="41597.5" y2="14485.1" gradientUnits="userSpaceOnUse">
<stop stop-color="#3133AB"/>
<stop offset="0.1825" stop-color="#2E38B0"/>
<stop offset="0.4069" stop-color="#2647BD"/>
<stop offset="0.6533" stop-color="#1960D4"/>
<stop offset="0.9137" stop-color="#0783F3"/>
<stop offset="1" stop-color="#0090FF"/>
</linearGradient>
<linearGradient id="paint2_linear_66_572" x1="1838.62" y1="304.942" x2="1838.62" y2="8420.22" gradientUnits="userSpaceOnUse">
<stop stop-color="#311341"/>
<stop offset="0.2299" stop-color="#3113C2"/>
<stop offset="0.3479" stop-color="#2F18C5"/>
<stop offset="0.4931" stop-color="#2927CC"/>
<stop offset="0.6524" stop-color="#1F40D8"/>
<stop offset="0.8219" stop-color="#1263E9"/>
<stop offset="0.9978" stop-color="#008FFF"/>
<stop offset="1" stop-color="#0090FF"/>
</linearGradient>
<linearGradient id="paint3_linear_66_572" x1="0" y1="13280.9" x2="6053.69" y2="13280.9" gradientUnits="userSpaceOnUse">
<stop stop-color="#7633FF"/>
<stop offset="0.1585" stop-color="#7137FF"/>
<stop offset="0.3535" stop-color="#6243FF"/>
<stop offset="0.5676" stop-color="#4957FF"/>
<stop offset="0.7937" stop-color="#2672FF"/>
<stop offset="1" stop-color="#0090FF"/>
</linearGradient>
<linearGradient id="paint4_linear_66_572" x1="1.63013" y1="4290.4" x2="5915.81" y2="4290.4" gradientUnits="userSpaceOnUse">
<stop stop-color="#A1BAFF"/>
<stop offset="0.4332" stop-color="white"/>
</linearGradient>
<linearGradient id="paint5_linear_66_572" x1="359.45" y1="1151.17" x2="359.45" y2="17298.6" gradientUnits="userSpaceOnUse">
<stop stop-color="#A1BAFF"/>
<stop offset="0.4332" stop-color="white"/>
</linearGradient>
</defs>
</svg>
