<svg width="50" height="50" viewBox="0 0 50 50" fill="none" xmlns="http://www.w3.org/2000/svg">
<path d="M50 12.5809C49.7235 12.1359 49.3548 11.7314 48.9401 11.5291L26.7742 0.283171C26.4055 0.0809061 25.8986 0 25.3456 0C24.7926 0 24.2857 0.121359 23.9171 0.283171L1.56682 11.5291C0.78341 11.9337 0 12.945 0 13.7136V36.246C0 36.6909 0.32258 37.1764 0.645161 37.6214L0.691244 37.6618C0.921659 37.9854 1.29032 38.2686 1.6129 38.4304L23.871 49.7168C24.2396 49.9191 24.7926 50 25.3456 50C25.8986 50 26.4055 49.8786 26.7742 49.7168L48.6636 38.4304C49.447 38.0259 49.7696 37.0146 49.7696 36.246V13.7136C49.7696 13.39 49.9539 12.9854 49.7696 12.6618L50 12.5809ZM48.0645 13.4304C48.0645 13.5518 47.9263 13.6327 47.9263 13.7136V36.246C47.9263 36.5696 47.8341 36.9337 47.7419 37.055L25.8065 48.301C25.7604 48.3414 25.576 48.3819 25.2995 48.3819C25.023 48.3819 24.8387 48.3414 24.7926 48.301L2.58065 37.055C2.58065 37.055 2.53456 37.0146 2.48848 37.0146L2.21198 36.7718C2.02765 36.4887 2.30415 36.3269 1.84332 36.2864V13.754C2.30415 13.5518 2.25806 13.0663 2.48848 12.9854L24.7465 1.69903C24.7926 1.69903 25.023 1.61812 25.2995 1.61812C25.576 1.61812 25.7604 1.65858 25.8065 1.69903L47.9263 12.9045L48.1106 13.2686C48.1567 13.3091 48.0645 13.39 48.0645 13.4304ZM25.3456 15.089C29.5392 15.089 33.2258 17.1117 35.1613 20.1456L41.1521 17.1117C38.0184 12.2977 32.1198 9.02104 25.3456 9.02104C15.2995 9.02104 7.14286 16.1812 7.14286 25C7.14286 33.8188 15.2995 40.979 25.3456 40.979C32.0737 40.979 37.9723 37.7427 41.106 32.9693L35.1613 29.8948C33.2258 32.8883 29.5392 34.911 25.3456 34.911C19.1244 34.911 14.0553 30.4612 14.0553 25C14.0553 19.5388 19.1244 15.089 25.3456 15.089Z" fill="#03599C"/>
</svg>
