<svg width="41" height="52" viewBox="0 0 41 52" fill="none" xmlns="http://www.w3.org/2000/svg">
<g clip-path="url(#clip0_478_7)">
<path d="M12.0953 32.1405C10.5543 30.9282 8.91003 29.7665 7.78674 28.1296C5.42208 25.2428 3.60192 21.9014 2.35756 18.3894C1.60522 16.1055 1.34759 13.6571 0.377132 11.4619C-0.636631 9.86697 0.551782 8.12473 2.2986 7.61801C3.07576 7.46817 4.44309 6.73448 2.79252 7.25954C1.3125 8.34474 1.16993 6.27328 2.68726 6.14209C3.72283 6.00474 4.10406 5.15741 3.74954 4.39464C2.63747 3.66917 6.44517 2.87321 4.52907 1.79101C2.53442 -0.3617 7.32032 -0.776119 6.13933 1.66914C5.85705 3.54921 9.48472 1.3238 8.64229 3.49531C9.49815 4.53831 11.8464 3.73318 11.7874 5.1955C13.0338 5.28117 13.4617 6.32923 14.6305 6.40984C15.8439 6.95766 18.0413 7.38851 18.4535 8.7549C17.2507 9.70686 14.4663 6.78822 14.3318 9.42378C14.6956 13.3179 14.6028 17.3292 16.0271 21.0373C16.7007 23.2823 18.3347 25.0495 19.8095 26.7984C21.2214 28.5108 23.1334 29.7171 25.0827 30.7319C26.792 31.538 28.6349 32.0722 30.4984 32.4083C31.2539 31.8304 32.588 29.6818 33.7662 30.5872C33.8231 31.6064 31.4276 32.7163 33.6538 32.6036C34.9622 32.2088 35.8686 33.6142 36.9455 32.3461C37.9377 33.5214 41.0691 31.5959 40.3634 33.9978C39.4084 34.6139 38.0163 34.2417 37.0604 35.0893C35.4842 34.3018 34.2293 35.7932 32.4837 35.6051C30.546 35.9522 28.5738 36.0919 26.6093 36.0947C23.3856 35.8404 20.094 35.7331 17.0274 34.6106C15.2994 34.1086 13.6137 33.1246 12.0953 32.1405ZM14.8176 33.3209C16.5044 34.0495 18.154 34.8184 20.0029 35.0509C22.9361 35.4582 25.9652 36.0865 28.9087 35.514C27.5766 34.9126 26.1988 35.7476 24.8718 35.0841C23.2802 35.4262 21.572 34.9962 19.9532 34.7843C18.1134 33.9649 16.1273 33.4016 14.4043 32.3368C12.2504 31.5505 15.5175 33.3457 16.0993 33.4916C17.445 34.255 14.6191 33.0996 14.22 32.7824C13.0928 32.1498 12.9493 32.2821 14.1088 32.924C14.3422 33.0605 14.5728 33.2042 14.8176 33.3209ZM11.6076 31.0523C13.2426 31.658 11.6003 29.9029 10.852 30.0044C10.5201 29.4286 9.58398 29.0648 10.2443 28.7558C9.05686 29.1683 8.99996 27.1879 8.44203 27.4713C7.18518 27.0744 7.95301 25.6686 6.45544 24.8049C6.31888 23.8951 4.96815 23.1066 4.53824 21.735C4.3481 21.0323 3.01175 19.016 3.83237 20.8926C4.53097 22.6991 5.75984 24.2476 6.78309 25.7927C7.57684 27.2642 8.51537 28.8033 9.96125 29.7212C10.4492 30.1893 10.9194 30.9055 11.6076 31.0523ZM6.89878 25.8815C7.19751 26.4158 6.95537 25.6345 6.89878 25.8815ZM13.566 31.7778C13.9276 31.6156 13.0451 31.5733 13.566 31.7778ZM14.4527 32.1015C14.3609 31.6548 14.0476 32.3515 14.4527 32.1015ZM15.5638 32.5646C16.0919 32.0609 14.7483 32.2469 15.5638 32.5646ZM17.4676 33.6256C17.7889 33.1513 16.4391 33.447 17.4676 33.6256ZM13.8121 31.0773C14.6324 30.5459 12.7506 31.0698 13.8121 31.0773ZM14.645 31.4926C14.6212 31.2124 14.3484 31.6186 14.645 31.4926ZM18.809 34.0919C19.4787 34.5147 22.719 35.0179 20.6902 34.2654C20.3499 34.3368 16.928 33.297 18.809 34.0919ZM12.1988 28.9429C12.1337 28.662 11.1588 28.6319 12.1988 28.9429ZM14.1366 30.0738C14.6419 29.7213 13.0896 29.8019 14.1366 30.0738ZM15.7674 31.0732C16.4919 30.8004 14.5935 30.7993 15.7674 31.0732ZM11.4092 28.084C12.1947 28.6864 14.5782 28.1615 12.6121 27.7245C11.7182 27.2479 9.70283 26.9215 11.0766 28.0118L11.4092 28.084ZM16.8725 31.4182C17.2 30.8611 15.4998 31.0997 16.8725 31.4182ZM15.2125 30.0992C17.1328 30.642 13.5971 28.8838 14.7383 29.8988L14.9917 30.0136L15.2125 30.0992ZM18.5408 32.0228C20.3597 32.0401 16.8973 31.7718 18.5408 32.0228ZM10.7096 27.0317C10.6382 26.6928 10.2611 27.0598 10.7096 27.0317ZM21.6175 33.7487C21.666 33.137 21.0241 34.2045 21.6175 33.7487ZM13.8143 28.9325C13.7037 28.61 13.2459 28.919 13.8143 28.9325ZM10.8821 26.819C11.9262 26.7561 9.45168 26.359 10.8821 26.819ZM7.40835 24.574C7.27827 24.0729 6.27257 23.674 7.40835 24.574ZM16.5273 30.361C16.4372 30.4084 16.3361 30.1427 16.5273 30.361ZM22.2023 33.844C22.1849 33.5101 21.8933 33.9698 22.2023 33.844ZM16.025 29.8421C16.1274 29.4122 15.1342 29.7117 16.025 29.8421ZM11.7967 27.1621C12.5741 27.0793 10.5513 26.637 11.7967 27.1621ZM18.949 31.6064C20.1602 31.1268 17.7687 31.3727 18.949 31.6064ZM15.2292 29.0815C16.6244 29.2611 13.5684 28.1316 14.9223 28.9801L15.2292 29.0815ZM20.0783 32.0631C21.3818 31.285 20.9519 33.8873 22.2894 32.2832C23.608 31.3201 21.1503 33.4739 22.7751 32.4549C23.9511 31.6682 25.6874 32.8279 26.7841 33.2052C27.5725 33.1669 28.3395 33.8873 29.1486 33.4489C30.7051 33.0293 26.104 32.8269 27.31 32.0836C25.8859 32.4983 24.8339 31.5897 24.1331 30.6771C22.5351 30.308 20.6883 29.4917 19.8904 28.0768C19.5648 27.5467 20.3598 28.1523 19.6094 27.2841C18.6471 26.4283 18.1667 25.4556 17.5205 24.415C16.7484 24.0035 16.6576 22.7913 16.58 24.3748C16.5863 23.3753 15.6477 22.7024 15.4182 22.9816C15.4141 22.0192 16.423 22.5019 15.717 21.7898C15.5652 20.7923 15.0648 19.7528 14.9148 18.6262C14.6816 18.0836 14.8817 16.921 14.1171 18.1497C13.839 19.4489 14.0252 16.5539 14.4582 17.508C15.0266 16.5343 14.2534 16.6489 14.2224 16.7834C14.5926 15.9619 14.4571 14.7959 14.1254 15.2404C14.3228 14.369 14.4375 12.0344 13.8309 12.4488C14.1987 11.5373 14.5286 8.27931 12.9305 9.52193C12.2836 9.5311 11.1623 9.75665 10.6331 10.0201C12.294 10.9359 10.4656 10.3508 9.78866 10.205C9.70078 11.0525 9.0311 10.6866 8.19389 10.6949C9.53134 10.8602 7.5427 12.062 6.77708 11.5951C5.78071 12.0706 7.63595 13.2591 6.79668 13.6269C6.90021 14.18 5.27114 13.4267 5.39837 14.7061C4.43187 14.2987 5.26608 16.2233 5.74973 15.5723C7.39413 16.0177 6.90732 17.0316 6.94857 17.9957C6.68083 18.5568 5.62565 16.676 6.71386 16.7629C5.85499 15.3684 5.76427 16.2584 5.05097 16.9064C4.88564 16.953 6.87002 17.8282 5.62471 18.2603C6.72018 18.4299 6.75227 19.389 6.9756 19.9957C7.6339 20.6817 7.49829 19.2379 8.28714 20.0629C7.78768 19.328 5.64525 17.9924 7.37042 18.4207C7.36094 17.6817 7.0581 17.0852 7.58727 17.0996C8.11138 16.1519 7.0385 19.4375 8.21886 18.2325C8.54524 18.0899 8.62711 17.2837 9.21413 18.309C10.0667 19.1483 9.52218 19.7557 8.31906 18.9869C8.53402 19.7176 9.92822 19.9779 9.66569 21.1201C9.94355 22.1247 10.3324 21.7546 10.6712 21.6967C10.9368 22.6724 11.088 21.9552 11.1004 21.49C12.3167 21.7508 12.0315 22.4699 12.4127 22.9722C13.2508 23.3503 11.2129 20.408 12.6517 22.0874C14.1655 23.4548 13.22 24.0252 11.8611 23.8063C12.7209 23.7367 12.9976 24.9691 14.0738 24.9256C15.0546 25.3927 15.7192 27.1849 14.0283 26.4385C13.4423 25.9094 11.3657 25.2572 13.062 26.2629C14.6267 26.9884 15.8711 27.4215 17.381 28.3322C18.4611 29.1032 18.928 29.9865 19.3374 30.1615C18.429 30.5954 16.6008 29.8152 17.9587 29.5765C17.1112 29.4224 16.1584 28.9936 16.9696 30.0488C17.6599 30.6256 19.4139 30.5644 19.7292 30.6295C19.4626 31.2167 19.0048 31.2633 19.7395 31.3087C18.9198 31.7459 20.0029 31.8141 20.0783 32.0631ZM18.4022 27.3285C17.903 26.8066 17.7739 25.83 18.3133 26.6792C18.5904 26.791 19.1992 28.2764 18.4022 27.3285ZM23.8625 30.797C24.1735 30.7765 23.8716 31.0335 23.8625 30.797ZM17.6149 26.0491C17.7944 26.6576 17.595 25.2604 17.6149 26.0491ZM17.0721 25.3193C17.8627 25.6625 16.4439 24.1071 17.0721 25.3193ZM10.4947 20.7802C10.8637 20.6817 10.6766 21.4103 10.4947 20.7802ZM15.7296 23.6171C15.9953 24.3304 15.956 22.7664 15.7296 23.6171ZM12.0316 21.0455C12.5764 21.486 11.7713 20.5764 12.0316 21.0455ZM15.2046 22.0626C14.6103 20.7315 15.6262 21.3349 15.3369 22.2807L15.2046 22.0626ZM9.73207 18.4131C9.46654 17.9761 9.02715 16.6945 9.16877 16.303C9.29584 16.9405 10.5238 19.0458 9.77016 17.1753C8.93832 15.6074 10.7656 17.6836 10.9537 18.0754C11.0416 18.464 10.44 17.969 10.8471 18.8815C10.1041 17.8427 10.4089 19.4552 9.73207 18.4131ZM8.0412 17.2475C8.42781 17.944 8.11043 16.2315 8.0412 17.2475ZM8.80192 17.5099C9.41675 18.5786 9.16466 16.7433 8.80192 17.5099ZM6.97149 16.0942C6.34196 15.4676 5.88613 14.8911 7.00136 15.7054C7.43032 15.7219 6.04655 14.394 7.10489 15.2837C8.2168 15.4864 7.6535 17.1081 6.97149 16.0942ZM7.93262 16.0694C8.29868 15.7066 8.12703 16.4259 7.93262 16.0694ZM8.52485 16.2584C9.19769 16.6946 7.96976 15.2196 8.52485 16.2584ZM7.34877 15.1351C5.51849 13.5049 9.6483 15.9865 7.64749 15.4367L7.34877 15.1351ZM12.5938 18.1818C11.8012 17.7073 12.383 14.8384 12.6539 16.8C13.4239 16.5508 12.6112 17.814 13.1849 17.8015C13.0952 18.5981 12.8378 18.8848 12.5938 18.1818ZM14.5338 19.3289C14.697 19.9204 14.6112 18.464 14.5338 19.3289ZM14.197 18.9951C14.2837 18.6262 14.2052 19.4302 14.197 18.9951ZM7.70723 14.5996C6.53131 12.9769 11.1252 16.2407 8.46084 15.011C8.18266 14.9377 7.84695 14.9118 7.70723 14.5996ZM11.4435 16.58C11.6916 16.806 11.3321 15.2136 11.4435 16.58ZM14.2795 18.3997C14.4985 17.6216 14.2962 18.9147 14.2795 18.3997ZM7.88821 13.9805C8.58697 13.8307 10.7841 15.2073 8.76668 14.3733C8.54255 14.1251 8.06396 14.238 7.88821 13.9805ZM13.8897 16.9714C13.9645 15.5742 14.3076 16.1373 13.8929 17.1719L13.8897 16.9714ZM8.40789 13.4938C8.69302 13.0761 7.65113 11.6056 8.55757 12.9666C8.94954 13.2776 9.6913 13.4875 9.03616 13.6187C10.0665 14.5274 8.78517 13.8648 8.40789 13.4938ZM13.5929 16.5355C13.7895 14.9438 13.7667 17.4677 13.5929 16.5355ZM7.8125 12.0241C8.03061 11.9308 7.92819 12.3143 7.8125 12.0241ZM9.16545 12.8292C9.80715 13.6435 9.51348 12.0984 9.16545 12.8292ZM12.9801 14.951C13.0523 15.3592 12.9769 14.6709 12.9801 14.951ZM12.7588 14.4623C13.252 15.1536 12.2297 13.1558 12.7588 14.4623ZM12.4342 13.6053C12.7361 14.2833 12.3457 13.0657 12.4342 13.6053ZM12.9633 12.7455C12.5997 12.1055 13.4225 9.92387 13.5145 11.2768C13.1309 12.331 13.4038 12.9203 13.6703 11.5063C14.1646 10.3942 13.564 13.7026 12.9633 12.7455ZM13.5071 9.50123C13.6654 9.30682 13.5423 9.73562 13.5071 9.50123ZM12.5989 27.3946C12.6265 27.5136 12.3838 27.2065 12.5989 27.3946ZM14.4694 28.3404C15.5101 28.6081 15.505 28.179 14.5643 28.0508C14.059 27.5808 12.4622 27.0815 13.8916 27.993C13.9858 28.2329 14.2845 28.2266 14.4694 28.3404ZM10.7757 25.8866C11.3482 26.3148 12.9346 27.0979 11.5921 26.0502C12.0447 25.5239 10.7259 25.244 11.1633 24.8917C10.0501 24.2103 10.2845 24.2713 11.0651 24.2931C9.72765 23.6945 11.2582 23.7401 11.186 23.4333C10.6703 23.3318 8.62379 22.5235 9.82785 23.4993C8.60419 22.876 9.53624 23.7318 9.1664 23.6419C7.9146 23.3008 10.2807 24.595 8.96788 24.2735C9.68529 24.8419 10.8996 25.7308 9.27071 24.8749C9.05686 25.1839 10.4368 25.6522 10.7757 25.8866ZM12.7318 27.0112C15.11 27.7771 11.5649 26.0737 12.7318 27.0112ZM22.7468 33.0779C22.7778 32.6057 22.4221 33.481 22.7468 33.0779ZM23.7762 33.511C24.3249 32.9799 23.7989 34.3585 24.6856 33.3809C24.6948 32.6811 24.6588 32.2679 23.6667 33.1182C23.3926 33.2703 23.2709 33.9139 23.7762 33.511ZM7.43633 23.2495C7.26768 22.5869 6.25487 22.5897 7.43633 23.2495ZM8.53481 23.9696C8.12655 23.2928 7.07849 23.3568 8.53481 23.9696ZM14.7887 27.7409C15.3998 28.2837 17.5928 28.1389 15.53 27.8082C15.2249 27.3565 13.591 27.4651 14.7887 27.7409ZM23.3845 33.0504C24.324 32.2617 22.4741 33.4018 23.3845 33.0504ZM25.339 34.3928C25.345 34.1396 24.9339 34.5034 25.339 34.3928ZM25.3422 34.0383C26.3828 32.9366 24.3344 34.1034 25.3422 34.0383ZM4.73249 20.9858C3.8458 19.7207 4.18167 19.1522 3.32596 18.1187C3.16348 17.3281 1.85842 15.5359 2.65106 17.4345C3.37654 18.5456 3.59133 20.2652 4.73249 20.9858ZM25.0156 33.6879C26.931 32.4506 24.2303 33.1494 25.0156 33.6879ZM26.4772 34.2603C27.4363 33.4375 25.8704 34.0887 26.4772 34.2603ZM7.11074 21.8507C7.3848 21.4424 6.40186 21.798 7.11074 21.8507ZM26.1721 33.8696C27.1002 33.2714 25.9583 33.3632 26.0038 33.9243L26.1721 33.8696ZM13.5755 25.9301C13.5436 25.525 13.0847 25.9642 13.5755 25.9301ZM14.3538 26.3777C14.1058 25.8774 13.9735 26.4562 14.3538 26.3777ZM27.6615 34.2739C28.851 33.4159 26.9412 34.1094 27.4124 34.4372L27.6615 34.2739ZM27.2058 34.0538C28.1752 33.2423 26.1835 34.4133 27.2058 34.0538ZM29.533 35.6029C30.1834 35.1677 28.7426 35.4623 29.533 35.6029ZM7.70723 21.5562C8.57843 21.7514 11.1911 23.7028 9.6502 21.6917C8.86072 21.4581 9.33409 19.5284 8.52896 19.8695C9.06951 20.7727 8.97309 21.156 7.83826 20.5878C6.41324 19.8911 7.0374 20.9321 7.31668 21.2194C6.93609 21.3062 7.81882 21.5491 7.70708 21.5561M3.73516 18.4195C3.89116 17.7733 2.2975 14.8681 2.98282 16.9632C3.2297 17.4024 3.2041 18.2342 3.73516 18.4195ZM11.0256 22.9141C11.0039 22.8603 10.5761 22.539 11.0256 22.9141ZM12.1304 23.1717C12.1304 22.4873 10.9089 22.8935 12.1304 23.1717ZM21.7114 29.2105C21.5285 28.7431 20.989 29.2001 21.7114 29.2105ZM22.1713 29.5462C22.1029 29.2848 21.9054 29.5969 22.1713 29.5462ZM25.9684 31.9388C26.3333 31.6692 25.5126 31.9039 25.9684 31.9388ZM5.71859 18.926C6.76333 18.5217 4.59909 18.6376 5.71859 18.926ZM20.8678 28.4694C20.8556 27.7935 20.2013 28.638 20.8678 28.4694ZM5.30607 17.9636C5.97685 17.7376 4.68491 17.8151 5.30607 17.9636ZM7.2533 18.9072C7.24176 18.6852 7.04767 18.9921 7.2533 18.9072ZM31.0089 33.4748C31.8719 33.3002 33.8387 33.9142 34.156 33.2466C33.108 33.2207 30.5314 32.5064 30.4094 33.4159L30.6389 33.4522L31.0089 33.4748ZM7.87224 19.0634C7.88805 18.3781 7.33802 19.0376 7.87224 19.0634ZM2.75254 15.5111C2.52004 14.2056 1.86775 15.3135 2.75254 15.5111ZM3.97303 15.818C3.98868 15.3984 2.85559 15.4408 3.97303 15.818ZM4.67069 16.1612C4.51358 16.3667 4.46917 15.9978 4.67069 16.1612ZM9.06208 18.9776C9.26897 18.7873 8.57227 18.837 9.06208 18.9776ZM4.20664 15.3881C4.08794 14.4022 2.79173 15.2404 4.20664 15.3881ZM1.70226 13.7633C1.66702 13.3086 1.45823 13.9348 1.70226 13.7633ZM2.07527 13.4825C2.01442 12.9427 1.75489 13.5504 2.07527 13.4825ZM4.13235 14.7101C5.0026 14.369 2.5477 14.0031 3.95454 14.6461L4.13235 14.7101ZM31.6696 31.7199C32.2266 31.2094 30.9626 31.5619 31.6696 31.7199ZM34.9965 33.4438C35.2198 32.7846 34.4341 33.5308 34.9965 33.4438ZM4.34257 13.6321C4.43471 12.9936 3.65234 13.7592 4.34257 13.6321ZM1.41492 11.6707C1.25781 10.7695 1.27947 9.18702 2.78336 9.7214C0.776062 10.1203 4.17345 12.2171 3.74449 10.5615C4.58882 10.603 5.39616 10.0625 4.95266 10.8818C6.61666 10.699 7.76919 9.25624 9.37613 9.45887C10.6276 9.2926 11.996 9.16742 13.3449 8.66307C14.4538 8.58341 15.5213 7.38962 14.9139 6.68169C13.4018 6.55367 11.8182 6.7427 10.1471 7.07556C8.2952 7.45995 6.61271 8.19159 4.74387 8.50596C2.92165 8.75094 5.10976 9.17975 4.58771 9.27584C3.6378 9.60555 5.72159 9.82777 4.46474 10.176C3.68869 10.0283 2.8804 9.7617 3.21216 8.94314C1.46755 9.17042 -0.0662119 9.89384 1.31266 11.6694L1.41492 11.6707ZM5.62044 9.52905C6.02869 8.02231 7.81139 10.7695 6.29012 9.72962C6.10914 9.59306 5.80931 9.48242 5.62044 9.52905ZM5.69978 8.7982C6.29012 8.35913 6.01305 9.0454 5.69978 8.7982ZM6.44912 8.81085C6.50317 8.1173 8.16607 9.17769 6.72319 9.05994L6.44912 8.81085ZM7.47442 8.39848C7.84964 7.96004 7.58316 8.78698 7.47442 8.39848ZM7.73711 8.22288C8.36126 7.47355 11.2685 7.74414 9.14047 8.14923C8.5699 7.71932 8.13288 8.40243 7.73711 8.22288ZM11.532 7.63776C13.4182 8.36434 11.4381 5.59017 11.532 7.63776ZM12.6091 7.63144C13.0027 6.60014 14.1375 7.21718 12.792 7.42376C12.8208 7.5344 12.7517 7.95719 12.6091 7.63144ZM3.91819 13.103C5.09412 12.3826 2.66956 12.4779 3.91819 13.103ZM4.78828 13.3439C5.2008 12.9057 3.89116 13.166 4.78828 13.3439ZM2.22527 11.5259C2.897 11.0091 1.42946 11.3296 2.22527 11.5259ZM36.96 33.2557C36.9796 32.6562 36.4463 33.5254 36.96 33.2557ZM33.4305 30.8465C33.5307 30.1574 32.9769 30.9066 33.4305 30.8465ZM37.9305 33.4884C38.8701 33.4916 40.7777 33.1957 38.7334 33.1968C38.412 33.2466 36.8639 33.2363 37.9305 33.4884ZM5.55327 12.9209C6.31398 12.8692 6.74278 12.0826 5.40533 12.1272C3.33323 11.9133 7.23354 12.8373 5.13979 12.5727C4.85877 12.7587 5.53651 12.9726 5.55327 12.9209ZM6.22294 13.2601C6.14328 12.7722 5.98713 13.5193 6.22294 13.2601ZM7.01764 11.1412C7.34734 10.7318 6.56086 11.0317 7.01764 11.1412ZM4.4875 6.91324C5.84567 6.45235 7.70186 5.93346 8.34277 7.14084C7.69048 6.35642 8.0793 5.58321 8.69523 6.73148C9.56643 7.89223 10.0023 6.20342 9.43604 5.81366C10.0822 6.61562 10.8159 6.99511 9.868 5.86455C10.8985 4.62524 7.80618 6.02671 7.10347 6.01217C6.76554 6.1639 3.61204 6.8162 4.4875 6.91324ZM5.28347 5.39007C6.05778 4.80621 7.96139 5.73826 6.73978 4.80906C6.61998 4.7038 4.06518 5.51398 5.28347 5.39007ZM8.10616 5.50671C9.0115 5.52947 7.71561 4.28922 8.79449 4.85142C8.61779 4.27278 7.5378 4.1642 7.00974 3.9328C6.71102 4.46197 7.61714 5.51398 8.10616 5.50671ZM5.77833 2.94449C6.0916 2.5198 5.22862 3.16055 5.77833 2.94449ZM6.93213 3.22029C8.39224 3.02715 6.55976 2.59203 6.6372 3.20496L6.93213 3.22029ZM4.77785 1.53575C3.74939 0.19323 6.71165 1.76113 5.66659 0.355394C4.78717 -0.344156 3.94285 1.14409 4.77785 1.53575ZM17.9707 8.64141C18.4423 7.80609 16.0247 7.5148 17.6535 8.34553C17.8033 8.39532 17.7695 8.6991 17.9707 8.64141ZM8.39793 39.7499C8.29362 40.1618 8.22897 40.853 8.20479 41.8231C8.20479 42.0137 8.11897 42.1092 7.94685 42.1092C7.77472 42.1092 7.65492 42.0259 7.58711 41.8601C7.40282 41.4115 7.22833 41.0987 7.06174 40.9201C6.86544 40.7115 6.60433 40.5854 6.27858 40.5424C5.92849 40.4871 5.05634 40.4594 3.66198 40.4594C3.34271 40.4594 3.13361 40.4934 3.03561 40.5612C2.97413 40.6039 2.94347 40.6962 2.94347 40.8376V45.0117C2.94347 45.153 3.03245 45.2203 3.21026 45.2145C3.75729 45.2082 4.54962 45.1709 5.5874 45.1038C5.79035 45.0789 5.92722 45.013 5.99771 44.9053C6.06884 44.7978 6.13791 44.5203 6.20508 44.0716C6.24776 43.8258 6.39254 43.7305 6.63815 43.7861C6.84678 43.8291 6.93656 43.9244 6.90574 44.0716C6.73346 44.9074 6.67782 45.9946 6.73931 47.3338C6.74579 47.4932 6.64447 47.5795 6.43537 47.5918C6.26309 47.6103 6.15561 47.518 6.11294 47.3152C5.95362 46.5475 5.65663 46.1372 5.22404 46.0847C4.79097 46.0329 4.08557 46.0066 3.10927 46.0066C2.99863 46.0066 2.94347 46.0463 2.94347 46.1263V50.2729C2.94347 50.5801 3.05679 50.7892 3.28392 50.8994C3.46252 50.9915 3.84627 51.0747 4.43566 51.1483C4.73707 51.179 4.86873 51.3114 4.83238 51.5444C4.79523 51.7472 4.52528 51.8272 4.02108 51.7842C2.5654 51.6672 1.36418 51.6735 0.418542 51.803C0.154116 51.8393 0.0224568 51.7319 0.0224568 51.4804C0.0224568 51.3203 0.154116 51.2283 0.418542 51.2038C1.02057 51.136 1.32135 50.6076 1.32135 49.619V41.7308C1.32135 41.3259 1.24896 41.0142 1.10497 40.7959C0.960353 40.5778 0.691502 40.3794 0.298895 40.2015C0.0529614 40.0908 -0.0390265 39.9405 0.0222988 39.7499C0.0529614 39.6334 0.102274 39.5686 0.169448 39.5566C0.230931 39.5379 0.394043 39.5503 0.657679 39.5936C1.04491 39.6549 1.95736 39.6857 3.39455 39.6857C5.09032 39.6857 6.55502 39.6486 7.79006 39.5751C8.20147 39.5501 8.40757 39.5841 8.40757 39.6762C8.40757 39.7012 8.40441 39.7254 8.39793 39.7499ZM14.3735 51.4471C14.3735 51.6928 14.2352 51.8003 13.9589 51.7695C13.1118 51.6895 12.061 51.7015 10.808 51.806C10.5559 51.831 10.4011 51.8245 10.3423 51.7881C10.2838 51.751 10.2551 51.6498 10.2551 51.4834C10.2551 51.3364 10.4221 51.2122 10.7569 51.1104C11.0921 51.0094 11.259 50.7067 11.259 50.2032V41.8639C11.259 41.366 11.1868 41.0006 11.0428 40.767C10.8982 40.5335 10.6448 40.3524 10.2826 40.2237C10.092 40.1558 9.9965 40.0606 9.9965 39.9377C9.9965 39.7534 10.1348 39.6152 10.4112 39.5231C10.8291 39.388 11.2624 39.1795 11.7109 38.8966C12.0795 38.6753 12.3131 38.5651 12.4109 38.5651C12.6381 38.5651 12.7522 38.7213 12.7522 39.0347C12.7522 39.0105 12.7399 39.3176 12.7149 39.9562C12.697 40.5642 12.6907 41.1631 12.697 41.7532L12.7334 49.9816C12.7334 50.3565 12.8257 50.6285 13.01 50.7974C13.1943 50.9662 13.511 51.0783 13.9589 51.1335C14.2352 51.164 14.3735 51.2685 14.3735 51.4469M22.7076 50.9037C22.7076 51.0329 22.4727 51.2277 22.003 51.4885C21.5328 51.7497 21.1564 51.8803 20.8741 51.8803C20.6342 51.8803 20.4226 51.7638 20.2383 51.5302C20.054 51.2967 19.9245 51.1803 19.8511 51.1803C19.7959 51.1803 19.5041 51.3062 18.9754 51.5577C18.4477 51.8098 17.916 51.9359 17.3816 51.9359C16.878 51.9359 16.457 51.7881 16.1192 51.4938C15.7506 51.1679 15.5663 50.7257 15.5663 50.1665C15.5663 49.1037 16.7827 48.3422 19.2155 47.8815C19.6328 47.8015 19.8452 47.6326 19.8509 47.3746L19.8697 46.7848C19.9067 45.7775 19.4613 45.2739 18.5335 45.2739C18.2692 45.2739 18.019 45.51 17.7821 45.9829C17.5461 46.4565 17.2063 46.7111 16.7641 46.7482C16.2605 46.7969 16.0084 46.5851 16.0084 46.1122C16.0084 45.8171 16.3833 45.4737 17.1327 45.0801C17.9191 44.6687 18.675 44.4626 19.3998 44.4626C20.6465 44.4626 21.2639 45.0558 21.2517 46.2414L21.2146 50.0374C21.2089 50.4368 21.3779 50.6362 21.7215 50.6362C21.7893 50.6362 21.9184 50.6211 22.1085 50.5902C22.2993 50.5596 22.41 50.5441 22.4408 50.5441C22.6186 50.5441 22.7076 50.6644 22.7076 50.9037ZM19.8697 48.8031C19.876 48.6493 19.8401 48.5475 19.7633 48.499C19.6865 48.4499 19.5658 48.4401 19.3998 48.4709C17.9191 48.7351 17.1788 49.2175 17.1788 49.9177C17.1788 50.6242 17.5627 50.9773 18.3306 50.9773C18.6378 50.9773 18.9546 50.9191 19.2795 50.8027C19.6609 50.667 19.8511 50.5046 19.8511 50.3138L19.8697 48.8031ZM29.5583 49.8436C29.5583 50.4948 29.3073 51.0127 28.8071 51.3965C28.3065 51.7805 27.6232 51.9724 26.7568 51.9724C26.1796 51.9724 25.6017 51.9111 25.0245 51.7881C24.5266 51.6775 24.238 51.5763 24.1582 51.4842C24.1089 51.3977 24.0845 50.9775 24.0845 50.2217C24.0845 49.8961 24.1582 49.7269 24.3058 49.7149C24.4531 49.6963 24.5793 49.7764 24.6836 49.9542C25.1441 50.7592 25.8876 51.1618 26.9136 51.1618C27.7792 51.1618 28.2125 50.8604 28.2125 50.2582C28.2125 49.9945 28.1145 49.7731 27.9175 49.5951C27.7024 49.3923 27.2853 49.1557 26.6646 48.8855C25.7675 48.4864 25.1685 48.1363 24.8677 47.8349C24.542 47.5156 24.3793 47.0857 24.3793 46.5448C24.3793 45.8812 24.6343 45.3656 25.1441 44.997C25.617 44.6404 26.2499 44.4626 27.0421 44.4626C27.5399 44.4626 27.9943 44.5021 28.4064 44.5823C28.8486 44.6622 29.0789 44.7602 29.0974 44.8772C29.1461 45.2208 29.2479 45.7187 29.4015 46.3702C29.42 46.4495 29.3335 46.5142 29.1436 46.5633C28.9406 46.6063 28.8056 46.5723 28.7378 46.4622C28.2528 45.6694 27.6386 45.2733 26.8949 45.2733C26.0534 45.2733 25.6325 45.5436 25.6325 46.0841C25.6325 46.3854 25.7463 46.6246 25.9735 46.8026C26.1764 46.9562 26.6523 47.1962 27.4018 47.5219C28.1881 47.8597 28.7225 48.1638 29.0054 48.4339C29.374 48.7838 29.5583 49.2542 29.5583 49.8436ZM40.3988 51.4562C40.3988 51.6712 40.2542 51.785 39.9656 51.7971C39.5355 51.8035 38.973 51.8341 38.2794 51.8893C37.9352 51.9571 37.6894 51.9143 37.5423 51.7606C36.5715 50.7164 35.748 49.6228 35.0722 48.4799C35.0172 48.3819 34.9467 48.3327 34.8604 48.3327C34.7561 48.3327 34.5751 48.4249 34.3172 48.6093C34.0279 48.7687 33.8839 48.9963 33.8839 49.2906C33.8839 49.4998 33.8896 49.8006 33.9024 50.1943C33.9148 50.5871 34.0126 50.8449 34.1969 50.9678C34.326 51.0543 34.6244 51.1215 35.0907 51.1708C35.3795 51.2078 35.5241 51.3152 35.5241 51.4932C35.5241 51.6347 35.501 51.7224 35.4548 51.7556C35.409 51.7894 35.2873 51.7971 35.0907 51.7787C34.4765 51.7236 33.4385 51.7543 31.9765 51.8708C31.608 51.9015 31.4082 51.8553 31.3775 51.7325C31.3653 51.6898 31.3589 51.6282 31.3589 51.5482C31.3589 51.3582 31.5465 51.2134 31.9215 51.1158C32.2593 51.0292 32.4281 50.6331 32.4281 49.9267V41.873C32.4281 41.3695 32.3791 41.0194 32.2803 40.8229C32.1453 40.5708 31.8624 40.3742 31.4325 40.2329C31.2302 40.1657 31.1286 40.0704 31.1286 39.9475C31.1286 39.7689 31.2732 39.6307 31.5616 39.5329C32.026 39.3776 32.4687 39.1639 32.8792 38.8969C33.2173 38.6761 33.4264 38.5653 33.5057 38.5653C33.758 38.5653 33.8839 38.7246 33.8839 39.0447C33.8839 39.0012 33.8808 39.3058 33.8743 39.9566C33.8677 40.5587 33.8647 41.1608 33.8654 41.7629L33.8839 47.5309C33.8839 47.6909 33.9268 47.7702 34.0126 47.7702C34.1047 47.7702 34.2462 47.6909 34.4368 47.5309C34.9467 47.1315 35.5732 46.6095 36.3162 45.9644C36.464 45.811 36.5375 45.688 36.5375 45.5959C36.5375 45.4302 36.2887 45.3129 35.7915 45.2459C35.5765 45.2208 35.4748 45.1013 35.4868 44.8862C35.5054 44.6712 35.6131 44.5791 35.8094 44.6098C36.2522 44.6714 36.8973 44.7052 37.7444 44.7115C38.3344 44.7172 38.9211 44.7206 39.5048 44.7206C39.6948 44.7269 39.7903 44.8402 39.7903 45.0616C39.7903 45.2703 39.6398 45.3841 39.339 45.4027C38.8655 45.4206 38.4201 45.5281 38.003 45.7252C37.4193 45.9888 36.7955 46.4527 36.132 47.1164C36.0833 47.1533 36.0583 47.1993 36.0583 47.2545C36.0583 47.3403 36.1626 47.5464 36.3719 47.872C37.1397 49.0392 37.8647 49.9204 38.5462 50.5166C38.9826 50.8912 39.3909 51.0785 39.7716 51.0785C40.0546 51.0785 40.2297 51.0984 40.2969 51.1385C40.3648 51.1785 40.3988 51.2846 40.3988 51.4562Z" fill="black"/>
</g>
<defs>
<clipPath id="clip0_478_7">
<rect width="40.47" height="52" fill="white"/>
</clipPath>
</defs>
</svg>
