<svg width="62" height="52" viewBox="0 0 62 52" fill="none" xmlns="http://www.w3.org/2000/svg">
<path d="M36.8149 20.5513C33.107 20.5513 31.2644 22.1747 31.2644 24.5122C31.2644 26.017 32.1615 27.083 33.3492 27.5709C32.7674 28.0182 32.283 28.4094 31.8466 28.7953C31.4097 29.1821 31.1433 29.5904 31.1433 30.0381C31.1433 30.5873 31.4097 31.0963 32.2099 31.3799C31.3618 32.0518 30.8764 32.5393 30.8764 33.4546C30.8764 35.0605 32.549 35.9961 36.9364 35.9961C41.1544 35.9961 43.6019 34.6754 43.6019 32.337C43.6019 29.6342 41.1301 29.5323 36.9364 29.308L34.5611 29.1862L35.3612 28.1088C35.7967 28.2103 36.5005 28.2916 37.2769 28.2916C40.3304 28.2916 42.4394 26.9705 42.4394 24.7133C42.4394 23.7782 41.8887 23.1277 41.4527 22.6597L43.5942 22.5176V20.7187H39.0454C38.4884 20.7187 37.8572 20.5513 36.8149 20.5513ZM37.9057 32.1339C39.0701 32.1948 39.9914 32.2355 39.9914 32.8871C39.9914 33.9836 38.0757 34.066 36.6705 34.066C34.9733 34.066 33.7371 33.8215 33.7371 33.0086C33.7371 32.6015 34.052 32.2562 34.3678 31.9312L37.9057 32.1339ZM36.9616 26.1572C35.3612 26.1572 34.7069 25.4653 34.7069 24.4696C34.7069 23.1481 35.7003 22.5988 37.0338 22.5988C38.4152 22.5988 39.2396 23.2293 39.2396 24.4286C39.2396 25.4864 38.3184 26.1572 36.9616 26.1572ZM48.0373 18.9657C49.443 18.9657 50.2432 18.2946 50.2432 17.1352C50.2432 15.9773 49.443 15.3464 48.0373 15.3464C46.6554 15.3464 45.8552 15.9773 45.8552 17.1352C45.8552 18.2942 46.6554 18.9657 48.0373 18.9657ZM49.891 29.0285V20.7187H45.1766L44.9102 22.3014L46.202 22.6565C46.4452 22.717 46.5004 22.8283 46.5004 23.0518V29.0285C46.5004 29.334 46.296 29.395 45.9565 29.436L44.5629 29.5782V31.2812H51.8285V29.5782L50.4355 29.436C50.0707 29.395 49.891 29.3547 49.891 29.0285ZM60.7498 28.606C60.1675 28.7888 59.4749 28.9306 58.7953 28.9306C57.487 28.9306 57.1567 28.4634 57.1567 27.2638V22.3437H60.5473V20.3124H57.332C57.1378 20.3124 57.1567 20.3112 57.1567 20.169V17.4687H54.8351C54.5687 19.4999 53.2817 20.3921 51.3442 20.596V22.3437H53.2831C53.4774 22.3437 53.2817 22.4871 53.2817 22.6086V27.9349C53.2817 30.2331 54.4703 31.2085 57.3543 31.2085C58.7367 31.2085 60.3124 30.8221 61.3552 30.3956L60.7498 28.606ZM14.4048 15.7649C13.7668 15.2294 12.7312 15.2294 12.0928 15.7649L9.79157 17.695L12.7109 20.1434C13.3895 19.9513 14.1674 20.0801 14.7085 20.5338C15.2519 20.9901 15.4045 21.6482 15.1696 22.2194L17.9833 24.5793C18.6644 24.3827 19.4495 24.5098 19.993 24.9664C20.7535 25.6034 20.7535 26.6361 19.993 27.2735C19.233 27.9113 18.0022 27.9113 17.2417 27.2735C16.6702 26.7937 16.4551 26.0897 16.7453 25.499L14.0473 23.2984V29.0903C14.0473 29.1671 14.4808 29.2694 14.6353 29.3986C15.3948 30.0356 15.4316 31.0683 14.6717 31.7065C13.9117 32.3435 12.6983 32.3435 11.9388 31.7065C11.1793 31.0683 11.1885 30.036 11.9485 29.3986C12.1364 29.2414 12.1098 29.1224 12.5942 29.0427V23.1972C12.1098 23.1176 12.1452 22.9994 11.9577 22.8413C11.3823 22.3587 11.2437 21.6506 11.5387 21.0579L8.66056 18.6436L1.0612 25.0172C0.422309 25.5531 0.422309 26.4216 1.0612 26.9567L12.1447 36.2521C12.7826 36.7871 13.8177 36.7871 14.4566 36.2521L25.4882 26.9993C26.1262 26.4639 26.1262 25.5953 25.4882 25.0599L14.4048 15.7649Z" fill="#F34F29"/>
</svg>
