<svg width="41" height="40" viewBox="0 0 41 40" fill="none" xmlns="http://www.w3.org/2000/svg">
<path d="M20.1465 0C9.09648 0 0.146484 9.17638 0.146484 20.5059C0.146484 29.5797 5.87148 37.2438 13.8215 39.9608C14.8215 40.1403 15.1965 39.5251 15.1965 38.9868C15.1965 38.4998 15.1715 36.8849 15.1715 35.1676C10.1465 36.116 8.84648 33.9116 8.44648 32.7581C8.22148 32.1686 7.24648 30.3487 6.39648 29.8617C5.69648 29.4772 4.69648 28.5288 6.37148 28.5032C7.94648 28.4775 9.07148 29.9898 9.44648 30.605C11.2465 33.7065 14.1215 32.835 15.2715 32.2968C15.4465 30.9639 15.9715 30.0667 16.5465 29.5541C12.0965 29.0414 7.44648 27.2728 7.44648 19.4293C7.44648 17.1993 8.22148 15.3538 9.49648 13.9184C9.29648 13.4057 8.59648 11.3039 9.69648 8.48431C9.69648 8.48431 11.3715 7.94603 15.1965 10.5862C16.7965 10.1248 18.4965 9.89408 20.1965 9.89408C21.8965 9.89408 23.5965 10.1248 25.1965 10.5862C29.0215 7.9204 30.6965 8.48431 30.6965 8.48431C31.7965 11.3039 31.0965 13.4057 30.8965 13.9184C32.1715 15.3538 32.9465 17.1737 32.9465 19.4293C32.9465 27.2984 28.2715 29.0414 23.8215 29.5541C24.5465 30.1949 25.1715 31.4253 25.1715 33.3477C25.1715 36.0903 25.1465 38.2947 25.1465 38.9868C25.1465 39.5251 25.5215 40.1659 26.5215 39.9608C30.4921 38.5869 33.9423 35.9707 36.3865 32.4807C38.8308 28.9906 40.1458 24.8025 40.1465 20.5059C40.1465 9.17638 31.1965 0 20.1465 0Z" fill="#DEC127"/>
</svg>
