<svg width="405" height="432" viewBox="0 0 405 432" fill="none" xmlns="http://www.w3.org/2000/svg">
<path d="M323.503 50.7292C358.463 63.5315 398.269 73.2198 403.461 87.0601C408.999 100.9 379.577 118.893 366.078 139.48C352.579 160.068 355.002 183.25 334.579 203.838C313.811 224.252 270.544 242.245 225.892 243.283C180.894 244.321 134.512 228.578 89.1678 212.142C43.4776 195.534 -0.828075 178.406 0.902614 158.857C2.28717 139.48 50.0542 117.682 64.2458 88.9632C78.7836 60.2445 59.746 24.4326 81.2066 9.20821C103.013 -5.84316 164.972 -0.307024 211.354 10.5922C257.737 21.4915 288.197 37.7539 323.503 50.7292Z" fill="#DEC127"/>
<path fill-rule="evenodd" clip-rule="evenodd" d="M194.132 198.548L261.299 319.891L306.348 422.476H324.137L255.267 198.548L194.132 198.548Z" fill="#997659"/>
<path fill-rule="evenodd" clip-rule="evenodd" d="M180.607 198.548C179.892 241.189 169.461 298.598 167.794 301.256C166.683 303.028 128.33 325.562 52.7354 368.858L64.9876 378.216C154.183 341.095 200.844 320.059 204.972 315.108C211.163 307.682 231.319 239.342 247.503 198.548H180.607Z" fill="#B28B67"/>
<path fill-rule="evenodd" clip-rule="evenodd" d="M50.7111 365.637C46.6677 366.615 43.8893 367.556 42.3759 368.46C40.5353 369.56 38.1166 371.392 35.1198 373.956C36.9805 375.535 53.7032 389.722 85.288 416.517C91.5375 414.667 93.455 412.433 91.0405 409.814C88.6261 407.196 86.6488 405.003 85.1087 403.237L73.7198 376.326C73.5006 375.808 72.7434 375.5 72.0285 375.638C72.0163 375.64 72.0041 375.643 71.992 375.645L66.321 376.868C62.3285 375.494 59.5195 374.117 57.8938 372.738C56.5729 371.617 55.361 369.704 54.2579 366.998C53.8346 365.959 52.3288 365.333 50.8944 365.598C50.8326 365.609 50.7715 365.622 50.7111 365.637Z" fill="#E4E4E4"/>
<path fill-rule="evenodd" clip-rule="evenodd" d="M299.065 417.741C297.534 420.658 296.769 422.841 296.769 424.289C296.769 426.051 297.18 428.621 298.002 432C300.865 432 326.593 432 375.186 432C377.192 427.267 376.034 424.712 371.713 424.335C367.392 423.957 363.802 423.616 360.943 423.312L325.069 411.897C324.378 411.677 323.569 411.899 323.262 412.391C323.256 412.4 323.251 412.408 323.246 412.417L320.94 416.409C316.94 417.742 313.689 418.408 311.188 418.408C309.156 418.408 306.349 417.822 302.769 416.65C301.395 416.201 299.77 416.631 299.14 417.612C299.113 417.655 299.088 417.697 299.065 417.741Z" fill="#E4E4E4"/>
<path fill-rule="evenodd" clip-rule="evenodd" d="M239.292 411.91L323.87 405.358L261.188 198.548H185.435L239.292 411.91Z" fill="#69A1AC"/>
<path fill-rule="evenodd" clip-rule="evenodd" d="M70.2305 353.76L125.708 400.631C184.142 355.078 218.209 325.354 227.91 311.46C237.61 297.567 246.33 259.929 254.07 198.548H168.786C164.558 252.549 161.708 280.805 160.236 283.318C158.764 285.831 128.762 309.312 70.2305 353.76Z" fill="#89C5CC"/>
<path fill-rule="evenodd" clip-rule="evenodd" d="M292.989 188.888L332.223 214.75C343.228 217.713 352.336 221.15 359.547 225.062C361.211 226.418 363.13 229.086 355.797 228.244C348.464 227.403 340.702 226.774 339.509 228.674C338.316 230.574 342.567 233.154 340.274 235.681C338.745 237.365 332.664 232.603 322.033 221.394L282.266 205.963L292.989 188.888ZM115.332 177.697L138.352 180.297C113.642 221.981 100.395 244.026 98.6099 246.432C94.5945 251.845 99.3169 261.274 101.163 266.265C91.8333 268.36 94.8129 257.152 83.0161 259.948C72.2484 262.499 63.3629 268.283 52.6985 261.405C51.3874 260.56 50.283 257.794 54.4503 256.183C64.8326 252.169 80.0763 244.824 82.4459 242.117C85.6772 238.426 96.6392 216.953 115.332 177.697Z" fill="#B28B67"/>
<path fill-rule="evenodd" clip-rule="evenodd" d="M211.545 104.731L225.809 101.063C245.158 138.646 274.015 175.009 322.229 205.723L310.306 221.717C267.933 202.309 227.821 187.233 211.545 158.111C206.082 148.337 211.099 116.418 211.545 104.731Z" fill="#C5CFD6"/>
<path fill-rule="evenodd" clip-rule="evenodd" d="M162.552 210.504C203.412 213.872 235.573 213.872 259.036 210.504C261.943 210.086 262.402 206.302 261.054 203.734C240.061 163.74 225.665 128.843 225.665 101.064C221.813 102.574 215.072 102.8 205.442 101.743C179.56 130.37 167.663 163.216 162.552 210.504Z" fill="#181F31"/>
<path fill-rule="evenodd" clip-rule="evenodd" d="M199.008 99.343H209.794C212.306 110.828 220.227 266.349 244.681 317.223H112.365C115.234 270.618 137.862 214.634 160.785 167.786C140.516 182.207 122.849 206.644 107.786 241.095L83.002 236.149C101.43 174.408 139.317 129.028 196.665 100.009C196.789 99.7859 196.912 99.5639 197.035 99.343H197.99C198.341 99.1677 198.693 98.993 199.046 98.8188L199.008 99.343Z" fill="#DDE3E9"/>
<path d="M95.3602 292.833C95.3602 304.89 83.8628 314.665 69.6801 314.665C55.4974 314.665 44 304.89 44 292.833C44 280.775 55.4974 271 69.6801 271C83.8628 271 95.3602 280.775 95.3602 292.833Z" fill="#DEC127"/>
<path fill-rule="evenodd" clip-rule="evenodd" d="M206.021 80.8118C199.743 76.1244 195.493 70.3799 196.204 63.943C198.249 45.3966 238.838 49.4765 246.734 58.8372C254.629 68.1979 253.691 91.942 243.487 93.615C239.417 94.2822 230.748 92.6478 221.925 89.2652L227.464 114.186H194.764L206.021 80.8118Z" fill="#B28B67"/>
<path fill-rule="evenodd" clip-rule="evenodd" d="M239.365 52.6646C238.616 52.3803 237.049 51.7805 236.255 51.5631C236.067 51.5108 234.752 50.9139 234.716 50.9215C233.721 51.1352 230.837 51.9242 230.589 52.606C230.551 52.6577 230.513 52.7061 230.476 52.7485C230.068 53.221 229.693 53.7053 229.335 54.1954C228.55 55.2714 227.873 56.3959 227.226 57.5116C225.965 59.6844 224.87 61.9079 223.863 64.1364C222.838 66.405 221.969 68.7001 220.995 70.9781C219.593 74.256 217.8 77.4535 216.408 80.73C215.52 82.8221 215.025 84.9388 215.259 87.0921C215.261 87.118 215.262 87.1436 215.266 87.1699C215.267 87.1806 215.27 87.1913 215.271 87.202C215.311 87.533 215.367 87.8649 215.443 88.1977C215.509 88.4823 215.575 88.7679 215.645 89.0535C216.917 87.4412 217.887 85.6646 218.917 83.9784C219.018 83.8134 219.114 83.6471 219.208 83.4803C219.54 83.1383 219.878 82.7988 220.221 82.4606C222.38 80.3278 224.548 78.2028 226.618 76.0314C230.342 72.126 234.032 68.1381 238.447 64.5518C239.751 63.4928 241.085 62.45 242.372 61.3823C243.104 60.7748 243.818 60.157 244.508 59.5283C245.002 59.0787 247.148 57.5116 246.371 56.5701C245.973 56.0883 241.308 53.4023 239.365 52.6646Z" fill="#181F31"/>
<path fill-rule="evenodd" clip-rule="evenodd" d="M236.49 51.6422C237.219 51.7979 236.864 50.8338 236.159 50.4945C232.89 48.9228 220.395 48.3524 209.521 49.7882C202.236 50.7501 193.764 53.1441 187.946 56.2218C182.701 58.9963 179.093 63.444 177.236 67.7413C175.286 72.2535 174.991 76.9577 176.077 81.5847C176.316 82.6011 176.829 83.5696 177.115 84.5644C177.436 85.6847 177.601 86.7633 178.175 87.8533C178.526 88.5205 179.123 89.1747 179.423 89.8458C179.765 90.6115 179.557 91.3199 179.307 92.0988C178.9 93.3682 178.396 94.6351 177.68 95.8475C176.604 97.6681 175.298 99.3732 174.48 101.263C173.391 103.776 168.835 111.957 172.164 114.186H235.545C233.949 111.417 229.159 108.158 228.189 105.194C227.618 103.448 227.346 99.6344 227.286 99.4958C225.858 93.2332 223.069 90.2425 221.322 89.1572C219.576 88.0718 217.249 87.7381 217.129 86.7966C216.634 82.9028 219.068 79.172 220.853 75.538C222.98 71.2069 224.539 66.7683 226.733 62.4518C227.704 60.5404 232.708 50.8338 236.49 51.6422Z" fill="#89C5CC"/>
<path fill-rule="evenodd" clip-rule="evenodd" d="M214.269 56.1221C211.879 60.9457 211.365 63.5206 211.879 70.1114H210.707C208.516 63.8917 210.466 58.0364 212.796 56.1221H214.269ZM182.204 68.5707C186.658 75.445 188.689 79.5043 201.127 85.067L200.166 85.4948C187.819 81.0439 184.224 75.7346 181.268 68.8571L182.204 68.5707ZM200.504 61.5752C202.527 71.3325 203.118 76.9059 213.657 87.579L212.535 87.797C201.689 78.504 199.97 70.9191 199.458 61.6288L200.504 61.5752ZM188.863 90.5591L189.823 89.8173C202.913 92.4253 201.454 97.8094 217.941 103.262L216.564 103.793C202.127 100.003 198.752 91.8755 188.863 90.5591Z" fill="black" fill-opacity="0.2"/>
<ellipse cx="214.138" cy="401.426" rx="10.1385" ry="12.4265" fill="#DEC127"/>
<ellipse cx="350.938" cy="253.11" rx="8.97881" ry="8.28054" fill="#DEC127"/>
</svg>
