<svg width="62" height="52" viewBox="0 0 62 52" fill="none" xmlns="http://www.w3.org/2000/svg">
<path d="M8.64152 46.8022L3.66602 0H58.3345L53.3538 46.7957L30.9667 52L8.64152 46.8022Z" fill="#E44D26"/>
<path d="M31 48.0221L49.0885 43.8144L53.3458 3.82642H31V48.0221Z" fill="#F16529"/>
<path d="M31 21.1858H21.9454L21.3176 15.3076H31V9.56592H13.8389L14.0016 11.1064L15.6834 26.9231H31V21.1858ZM31 36.0924L30.969 36.0989L23.3481 34.3721L22.8599 29.7939H15.9908L16.9492 38.8073L30.969 42.0724L31 42.0638V36.0924Z" fill="#EBEBEB"/>
<path d="M30.9766 21.1858V26.9253H39.406L38.6103 34.3699L30.9766 36.0967V42.0681L45.0066 38.8072L45.11 37.8366L46.7194 22.7263L46.8847 21.1836H45.0402L30.9766 21.1858ZM30.9766 9.56592V15.3076H47.5073L47.6442 14.0163L47.9568 11.1064L48.1196 9.56592H30.9766Z" fill="white"/>
<path d="M31.0004 51.9912L30.9668 51.9999H31.0004V51.9912Z" fill="#DEDEDE"/>
<path d="M31.0003 15.3075H21.3179L21.9431 21.1857H30.9744H31.0003V15.3075ZM31.0003 0H3.66602L8.64152 46.8022L30.9667 52L31.0003 51.9913V42.0637L30.9693 42.0723L16.9495 38.8072L15.9911 29.7938H22.8602L23.3484 34.372L30.9693 36.0988L30.977 36.0967L31.0003 36.0923V26.9252H15.6837L14.0019 11.1085L13.8392 9.56583H30.977H31.0003V0Z" fill="#C64321"/>
<path d="M22.8599 29.7939H15.9908L16.9492 38.8073L30.969 42.0724L31 42.0638L30.9767 42.0681V36.0968L30.969 36.0989L23.3481 34.3721L22.8599 29.7939ZM30.9767 9.56592H13.8389L14.0016 11.1064L15.6834 26.9231H31H30.9767V21.1858H21.9454L21.3176 15.3076H31H30.9767V9.56592Z" fill="#CDCDCD"/>
<path d="M30.9998 36.0924L30.9766 36.0967V42.0681L30.9998 42.0637V36.0924ZM30.9998 21.1858H30.9766V26.9253H30.9998V21.1858ZM30.9998 9.56592H30.9766V15.3076H30.9998V9.56592Z" fill="#DEDEDE"/>
</svg>
