<svg width="62" height="52" viewBox="0 0 62 52" fill="none" xmlns="http://www.w3.org/2000/svg">
<path d="M0.744141 1.08887V51.9449H61.3801V1.08887H0.744141ZM32.3913 44.5934C31.4981 46.116 29.7911 47.117 27.8149 47.5996C24.7769 48.1846 21.8726 47.8515 19.7103 46.7627C18.263 46.0185 17.1335 44.8729 16.3681 43.5534C17.9065 42.7652 19.441 41.9722 20.9794 41.1841C21.0201 41.1987 21.1402 41.3824 21.303 41.6196C21.89 42.4467 22.3976 43.0317 23.3955 43.4412C24.3758 43.7207 26.5245 43.9011 27.3557 42.4549C27.8633 41.7204 27.7006 39.3089 27.7006 36.6942C27.7006 32.5846 27.7238 28.5432 27.7238 24.3832H33.3949C33.3949 28.7512 33.424 33.1306 33.3949 37.4921C33.4065 40.1652 33.6836 42.5962 32.3913 44.5934ZM55.9203 43.2495C53.9498 48.9061 42.9565 49.0897 38.5661 45.3522C37.638 44.4731 37.0568 44.0132 36.5026 42.9976C38.8373 41.8715 38.8373 41.8715 41.1081 40.7697C42.3423 42.3606 43.4835 43.2349 45.5353 43.5924C48.3195 43.8767 51.1211 43.0756 50.4933 40.5959C49.8481 38.5695 44.7932 38.0771 41.3522 35.911C37.8589 33.9431 37.0413 29.1624 39.9107 26.4307C40.8678 25.42 42.4992 24.666 44.21 24.3036L45.9964 24.1102C49.4258 24.0517 51.5706 24.8106 53.1438 26.2861C53.5817 26.6582 53.9382 27.0596 54.6086 27.9306C52.7815 28.9072 52.7873 28.8975 50.1698 30.3194C49.6098 29.3086 48.6837 28.6749 47.7033 28.4002C46.1824 28.0135 44.2623 28.4344 43.8651 29.7831C43.7276 30.1991 43.7566 30.5859 43.9756 31.2716C44.5917 32.4514 46.661 32.9632 48.5171 33.6782C53.8607 35.4966 55.6645 37.4434 56.1082 39.7639C56.5345 41.761 56.0036 43.0561 55.9241 43.2495H55.9203Z" fill="#444444"/>
</svg>
