<svg width="41" height="40" viewBox="0 0 41 40" fill="none" xmlns="http://www.w3.org/2000/svg">
<path d="M0.146484 2.865C0.146484 1.2825 1.46148 0 3.08398 0H37.209C38.8315 0 40.1465 1.2825 40.1465 2.865V37.135C40.1465 38.7175 38.8315 40 37.209 40H3.08398C1.46148 40 0.146484 38.7175 0.146484 37.135V2.865ZM12.504 33.485V15.4225H6.50148V33.485H12.504ZM9.50398 12.955C11.5965 12.955 12.899 11.57 12.899 9.835C12.8615 8.0625 11.599 6.715 9.54399 6.715C7.48899 6.715 6.14648 8.065 6.14648 9.835C6.14648 11.57 7.44898 12.955 9.46398 12.955H9.50398ZM21.774 33.485V23.3975C21.774 22.8575 21.814 22.3175 21.974 21.9325C22.4065 20.855 23.394 19.7375 25.054 19.7375C27.2265 19.7375 28.094 21.3925 28.094 23.8225V33.485H34.0965V23.125C34.0965 17.575 31.1365 14.995 27.1865 14.995C24.0015 14.995 22.574 16.745 21.774 17.9775V18.04H21.734C21.7473 18.0191 21.7606 17.9983 21.774 17.9775V15.4225H15.774C15.849 17.1175 15.774 33.485 15.774 33.485H21.774Z" fill="#DEC127"/>
</svg>
