<svg width="62" height="52" viewBox="0 0 62 52" fill="none" xmlns="http://www.w3.org/2000/svg">
<g clip-path="url(#clip0_244_965)">
<path d="M16.8741 42.3671C16.497 42.3671 16.1611 42.3476 15.877 42.3108V43.3616C16.4608 43.5566 16.9439 43.6541 17.3391 43.6541C18.8194 43.6541 20.1834 42.8958 21.4285 41.3726C23.0199 39.4009 24.3064 36.2354 25.2829 31.8848H23.0095C22.6458 34.4174 21.9216 36.9044 20.8525 39.2926C20.9248 38.8398 20.7465 38.0446 20.3229 36.9049L18.4448 31.8848H16.094L18.7135 38.5993C19.1087 39.6068 19.3076 40.2784 19.3076 40.6078C19.3076 41.0823 19.0545 41.5113 18.5455 41.8948C18.1219 42.2068 17.5665 42.3671 16.8741 42.3671Z" fill="#105E86"/>
<path d="M50.3281 28.8015V40.5643H57.1223V39.117H52.6144V28.8015H50.3281Z" fill="#DE8A03"/>
<path d="M2.68667 31.1827H2.7125L6.32917 40.5643H8.15042L11.7929 31.1827H11.8136C12.211 34.2997 12.4437 37.43 12.5111 40.5643H14.9136C14.7657 36.631 14.3967 32.7057 13.8079 28.8015H10.9792L7.49942 37.4465H7.47875L4.03 28.8015H1.05917C0.473277 32.7053 0.119783 36.6311 0 40.5643H2.18292C2.25267 37.1237 2.42058 33.9972 2.68667 31.1827Z" fill="#105E86"/>
<path d="M48.2536 34.4629C48.2536 30.5716 46.3988 28.6216 42.6866 28.6216C40.8679 28.6216 39.447 29.1156 38.424 30.1036C37.3132 31.1847 36.7552 32.7751 36.7552 34.8789C36.7552 36.9459 37.246 38.4647 38.238 39.4311C39.1422 40.3042 40.5036 40.7397 42.3275 40.7397C43.0095 40.7397 43.6346 40.6704 44.2004 40.5317L47.6233 42.1741L48.5533 40.8524H48.5455L45.9209 39.7886C46.1534 39.6261 46.3781 39.4527 46.5796 39.2577C47.6982 38.1787 48.2536 36.5797 48.2536 34.4629ZM42.5625 39.2837C41.413 39.2837 40.5734 38.9284 40.036 38.2199L40.0412 38.2091C39.46 37.4442 39.1706 36.2092 39.1706 34.5171C39.1706 31.5531 40.266 30.0711 42.4515 30.0711C43.5959 30.0711 44.4406 30.4264 44.9754 31.1349C45.554 31.9041 45.8434 33.1261 45.8434 34.8009C45.8434 37.7866 44.748 39.2837 42.5625 39.2837ZM34.0995 34.8269C34.0995 34.8269 32.0484 33.8584 31.0331 33.4012C29.9171 32.8899 29.3126 32.2897 29.3126 31.5942C29.3147 31.3801 29.3732 31.1691 29.484 30.9762C29.5947 30.7832 29.755 30.6133 29.9533 30.4784C30.346 30.1837 30.9117 30.0407 31.6428 30.0407C32.5444 30.0407 33.4615 30.2054 34.3915 30.5304L34.9417 29.5186C33.8631 28.9388 32.6061 28.6361 31.325 28.6476C30.0334 28.6476 28.9871 28.9379 28.1734 29.5294C27.3648 30.1144 26.9592 30.8792 26.9592 31.8369C26.9592 32.9874 27.5017 33.6872 28.5919 34.3416C28.5919 34.3416 30.594 35.2863 31.5963 35.7391C32.6761 36.2396 33.2703 36.8354 33.2703 37.5374C33.2746 37.7915 33.2065 38.0428 33.0717 38.2705C32.9369 38.4981 32.7393 38.6954 32.4953 38.8461C32.0045 39.1581 31.3302 39.3141 30.4725 39.3141C29.5503 39.3141 28.5299 39.0844 27.3984 38.6164L26.7861 39.6283C28.101 40.3584 29.447 40.7246 30.8497 40.7246C32.3506 40.7246 33.5364 40.4061 34.425 39.7669C35.3137 39.1299 35.758 38.3087 35.758 37.3077L35.7735 37.3142C35.7735 36.1681 35.2181 35.4769 34.0995 34.8269Z" fill="#DE8A03"/>
<path d="M42.3797 12.4973C42.0826 12.4973 41.8811 12.5276 41.6719 12.5666V12.5948H41.708C41.8475 12.8158 42.0852 12.9783 42.2609 13.1754C42.4004 13.4029 42.5192 13.6304 42.6587 13.8558L42.6949 13.8233C42.9377 13.6824 43.0565 13.4571 43.0565 13.1148C42.9532 13.0151 42.9377 12.9154 42.8499 12.8179C42.7465 12.6749 42.5244 12.6056 42.3849 12.4929L42.3797 12.4973Z" fill="#105E86"/>
<path d="M61.2125 28.6C60.7031 28.0485 60.0979 27.5642 59.4171 27.1635C58.8642 26.8537 57.6552 26.4182 57.4279 25.8982L57.3943 25.8678C57.7715 25.8397 58.221 25.727 58.5826 25.6425C59.1691 25.5147 59.7064 25.5428 60.3135 25.4172C60.5873 25.3608 60.8637 25.2893 61.1401 25.2178V25.09C60.8301 24.8343 60.5976 24.4877 60.2773 24.2493C59.3819 23.605 58.4284 23.0197 57.4253 22.4987C56.8828 22.2127 56.1956 22.0307 55.6247 21.788C55.4181 21.7035 55.0719 21.6602 54.9531 21.5172C54.6431 21.2073 54.4622 20.7935 54.2426 20.423C53.7466 19.6408 53.261 18.7742 52.8296 17.9487C52.5196 17.3918 52.331 16.8372 51.9512 16.3258C50.1687 13.9078 48.239 12.441 45.2707 11.0088C44.6326 10.712 43.868 10.5842 43.0594 10.426C42.628 10.4087 42.1966 10.3827 41.7677 10.3675C41.4836 10.2678 41.2097 9.997 40.9669 9.867C39.9852 9.35567 37.4432 8.25067 36.7199 9.71317C36.2549 10.6362 37.4096 11.5462 37.8101 12.0142C38.1071 12.3392 38.4817 12.7118 38.6884 13.078C38.8098 13.325 38.8434 13.5785 38.9648 13.8363C39.2386 14.4625 39.4996 15.158 39.8612 15.7452C40.0498 16.042 40.2565 16.3562 40.4993 16.6227C40.6388 16.7787 40.8765 16.8502 40.9307 17.1058C40.6879 17.3962 40.6724 17.8165 40.5329 18.1697C39.9129 19.7795 40.1557 21.7707 41.0341 22.9558C41.3105 23.309 41.9692 24.0912 42.8501 23.7922C43.6251 23.5365 43.4546 22.7283 43.6768 22.0155C43.7285 21.8443 43.6949 21.7317 43.8008 21.6168V21.6493C44.0436 22.0502 44.2865 22.4293 44.5086 22.8302C45.0408 23.5278 45.9708 24.2515 46.7484 24.7347C47.1617 24.9903 47.4898 25.4323 48.0065 25.5905V25.5472H47.9677C47.8566 25.4237 47.7094 25.3652 47.5699 25.2633C47.2426 24.9996 46.9403 24.7149 46.6657 24.4118C45.9388 23.5939 45.2934 22.7272 44.736 21.8205C44.4518 21.3742 44.2141 20.8932 43.9868 20.4533C43.8835 20.2843 43.8835 20.0287 43.7104 19.942C43.4521 20.2518 43.0723 20.5227 42.8837 20.9062C42.5556 21.5193 42.5221 22.2712 42.3981 23.0555C42.3283 23.0707 42.3619 23.0555 42.3283 23.0858C41.7755 22.9753 41.5869 22.503 41.3802 22.1065C40.8636 21.0968 40.7783 19.474 41.2252 18.3083C41.3466 18.0115 41.8633 17.0712 41.6566 16.7852C41.5481 16.5143 41.2071 16.3605 41.0186 16.1417C40.7767 15.857 40.569 15.5529 40.3986 15.2338C39.9852 14.4387 39.7786 13.5568 39.3291 12.7617C39.1224 12.3933 38.7607 12.0077 38.4662 11.6697C38.1381 11.2862 37.7765 11.0175 37.5156 10.5625C37.4303 10.4065 37.3089 10.1487 37.4458 9.97967C37.482 9.86483 37.5543 9.81934 37.6886 9.789C37.916 9.63517 38.5541 9.83667 38.7788 9.92117C39.4169 10.1335 39.9542 10.3328 40.489 10.6318C40.7318 10.7727 40.9927 11.0413 41.3027 11.1128H41.6644C42.2172 11.2125 42.8398 11.1432 43.3565 11.2688C44.2736 11.5115 45.1002 11.8647 45.8416 12.2482C48.1173 13.4417 49.9757 15.1192 51.2279 17.1102C51.4346 17.4373 51.525 17.7385 51.7136 18.0787C52.0752 18.7807 52.5221 19.4892 52.889 20.1673C53.2506 20.8368 53.5994 21.5215 54.1186 22.0762C54.377 22.373 55.4155 22.529 55.8805 22.685C56.2241 22.8128 56.7588 22.9298 57.0688 23.0858C57.663 23.3827 58.2416 23.725 58.7996 24.0522C59.0838 24.2147 59.9441 24.57 59.9957 24.856C58.6136 24.8257 57.5416 24.9405 56.6451 25.2568C56.3868 25.3413 55.9735 25.3413 55.9373 25.6122C56.0794 25.7248 56.1001 25.909 56.2215 26.0672C56.4281 26.351 56.7846 26.7323 57.1153 26.9338C57.477 27.1678 57.8386 27.3932 58.2184 27.5925C58.8901 27.9327 59.6521 28.1342 60.3109 28.4765C60.6855 28.6758 61.0678 28.9293 61.4476 29.1417C61.6361 29.2478 61.7576 29.4407 62.0004 29.5078V29.4667C61.8816 29.3388 61.8454 29.1547 61.7291 29.0117C61.5561 28.8687 61.383 28.7408 61.2125 28.6Z" fill="#105E86"/>
</g>
<defs>
<clipPath id="clip0_244_965">
<rect width="62" height="52" fill="white"/>
</clipPath>
</defs>
</svg>
