<svg width="52" height="52" viewBox="0 0 52 52" fill="none" xmlns="http://www.w3.org/2000/svg">
<g clip-path="url(#clip0_478_9)">
<path d="M46.4396 22.447C46.4186 22.447 46.3981 22.4532 46.3807 22.4649L45.4276 23.0215C45.4097 23.0326 45.3949 23.0481 45.3848 23.0667C45.3747 23.0852 45.3696 23.106 45.3699 23.1271V24.2402C45.3699 24.2873 45.3923 24.3231 45.4276 24.3466L46.3807 24.9024C46.3981 24.914 46.4186 24.9202 46.4396 24.9202C46.4605 24.9202 46.481 24.914 46.4985 24.9024L47.4499 24.3466C47.468 24.3353 47.483 24.3196 47.4933 24.3009C47.5036 24.2822 47.5089 24.2612 47.5088 24.2398V23.1279C47.5089 23.1067 47.5036 23.0859 47.4932 23.0673C47.4829 23.0488 47.468 23.0333 47.4499 23.0223L46.4981 22.4653C46.4808 22.4537 46.4604 22.4471 46.4396 22.447ZM25.683 29.103C25.5096 29.103 25.3369 29.1453 25.1899 29.2281L20.4981 31.961C20.3477 32.0492 20.223 32.1753 20.1364 32.3267C20.0499 32.4781 20.0046 32.6495 20.0049 32.8239V38.277C20.0049 38.632 20.1926 38.9635 20.4981 39.1415L21.7331 39.8508C22.3327 40.1465 22.5444 40.1457 22.8145 40.1457C23.6961 40.1457 24.2019 39.6017 24.2019 38.667V33.2862C24.2013 33.2487 24.1863 33.2129 24.1599 33.1863C24.1336 33.1598 24.0979 33.1444 24.0605 33.1436H23.4617C23.4241 33.1442 23.3882 33.1594 23.3617 33.1861C23.3351 33.2127 23.32 33.2486 23.3195 33.2862V38.6682C23.3195 39.0821 22.8852 39.4969 22.1917 39.1423L20.91 38.3968C20.8629 38.3732 20.8389 38.3131 20.8389 38.266V32.8117C20.8389 32.7646 20.8629 32.7061 20.91 32.6821L25.6002 29.9614C25.6355 29.9379 25.6948 29.9379 25.7419 29.9614L30.4333 32.6821C30.48 32.7061 30.5032 32.7528 30.5032 32.8121V38.2656C30.5032 38.3245 30.48 38.3728 30.4333 38.3964L25.7419 41.1292C25.7066 41.1528 25.6473 41.1528 25.6002 41.1292L24.4013 40.4065C24.366 40.383 24.3189 40.3712 24.2835 40.3947C23.9544 40.5841 23.8968 40.6088 23.5791 40.7153C23.5084 40.7388 23.391 40.7856 23.6258 40.9156L25.1899 41.8507C25.3426 41.9332 25.5067 41.9803 25.683 41.9803C25.8594 41.9803 26.0353 41.9336 26.1762 41.8747L30.868 39.1419C31.0185 39.0533 31.1432 38.9269 31.2297 38.7753C31.3162 38.6236 31.3616 38.452 31.3612 38.2774V32.8239C31.3612 32.4688 31.1735 32.1385 30.868 31.961L26.1762 29.2281C26.0252 29.1451 25.8554 29.102 25.683 29.103ZM33.0077 31.5933C32.767 31.5943 32.5364 31.6908 32.3668 31.8617C32.1971 32.0325 32.1023 32.2638 32.103 32.5046C32.1024 32.7453 32.1973 32.9764 32.3669 33.1472C32.5365 33.3179 32.767 33.4144 33.0077 33.4154C33.5021 33.4154 33.9129 33.0014 33.9129 32.5046C33.9116 32.2644 33.816 32.0343 33.6467 31.8639C33.4774 31.6935 33.2479 31.5961 33.0077 31.5933ZM32.9955 31.7473C33.0957 31.7461 33.1951 31.7647 33.288 31.8023C33.3808 31.8398 33.4653 31.8954 33.5365 31.9659C33.6077 32.0363 33.6641 32.1202 33.7026 32.2127C33.741 32.3052 33.7607 32.4044 33.7605 32.5046C33.7605 32.9189 33.4193 33.274 32.9959 33.274C32.5848 33.274 32.2436 32.9303 32.2436 32.5046C32.2436 32.0788 32.5962 31.7473 32.9955 31.7473ZM32.6669 31.9955V33.0363H32.8676V32.6236H33.0439C33.1146 32.6236 33.1377 32.6471 33.1495 32.7061C33.1495 32.7182 33.1844 32.9782 33.1844 33.0254H33.3957C33.3721 32.9782 33.3604 32.8361 33.3486 32.7532C33.3372 32.6232 33.3258 32.5285 33.1844 32.5167C33.2551 32.4928 33.3725 32.4574 33.3725 32.2681C33.3725 31.9959 33.1369 31.9959 33.0199 31.9959L32.6669 31.9955ZM32.8436 32.1613H33.0077C33.067 32.1613 33.1605 32.1613 33.1605 32.3031C33.1605 32.3502 33.1377 32.4456 33.0077 32.4456H32.8432L32.8436 32.1613ZM26.9652 32.9778C25.6245 32.9778 24.825 33.5458 24.825 34.5041C24.825 35.5336 25.6245 35.8163 26.9063 35.9467C28.4459 36.1007 28.5638 36.3257 28.5638 36.6333C28.5638 37.1655 28.1396 37.3905 27.152 37.3905C25.9057 37.3905 25.6355 37.0826 25.5413 36.4557C25.5413 36.3846 25.4836 36.3379 25.4129 36.3379H24.8015C24.7641 36.3384 24.7284 36.3535 24.7021 36.38C24.6758 36.4065 24.661 36.4423 24.6609 36.4797C24.6609 37.2841 25.0838 38.2306 27.1419 38.2306C28.6227 38.2306 29.4811 37.6383 29.4811 36.5975C29.4811 35.5799 28.7986 35.3081 27.3531 35.1188C25.8947 34.9295 25.7424 34.823 25.7424 34.4801C25.7424 34.1962 25.8715 33.818 26.953 33.818C27.917 33.818 28.281 34.0312 28.4224 34.6816C28.4295 34.711 28.446 34.7372 28.4694 34.7563C28.4928 34.7754 28.5218 34.7862 28.552 34.7873H29.1748C29.2105 34.7873 29.2459 34.7641 29.2698 34.7406C29.2916 34.7091 29.3037 34.672 29.3044 34.6337C29.2105 33.4982 28.4703 32.9778 26.9652 32.9778Z" fill="#5FA04E"/>
<path d="M34.9668 10.0198C34.9168 10.0192 34.8675 10.0317 34.8238 10.0559C34.7783 10.0824 34.7403 10.1202 34.7137 10.1656C34.687 10.211 34.6724 10.2625 34.6714 10.3151V18.005C34.6714 18.0757 34.6349 18.1472 34.5646 18.1944C34.5321 18.2118 34.4958 18.221 34.459 18.221C34.4221 18.221 34.3858 18.2118 34.3533 18.1944L33.1078 17.4733C33.0164 17.4209 32.9129 17.3933 32.8076 17.3933C32.7022 17.3933 32.5987 17.4209 32.5073 17.4733L27.5235 20.3719C27.4312 20.4239 27.3544 20.4993 27.3007 20.5905C27.2469 20.6818 27.2183 20.7856 27.2176 20.8914V26.6765C27.2176 26.8893 27.3354 27.0908 27.5235 27.1973L32.5081 30.0959C32.5995 30.1482 32.7029 30.1757 32.8082 30.1757C32.9134 30.1757 33.0168 30.1482 33.1082 30.0959L38.0925 27.1973C38.2805 27.0908 38.3984 26.8893 38.3984 26.6765V12.2558C38.3984 12.0311 38.2805 11.8292 38.0925 11.7232L35.1187 10.0559C35.0717 10.0323 35.0194 10.0199 34.9668 10.0198ZM5.56036 17.2372C5.46652 17.2372 5.37267 17.2714 5.29061 17.3185L0.305924 20.2065C0.212326 20.2599 0.134648 20.3373 0.0808819 20.4307C0.027116 20.5241 -0.000796096 20.6301 1.72815e-05 20.7379L0.0122048 28.4981C0.0122048 28.6049 0.0702985 28.7114 0.164549 28.7589C0.208165 28.7877 0.25931 28.8031 0.311611 28.8031C0.363912 28.8031 0.415057 28.7877 0.458674 28.7589L3.42186 27.0555C3.60996 26.949 3.72655 26.7475 3.72655 26.5347V22.9028C3.72655 22.6899 3.84436 22.4884 4.03286 22.382L5.29061 21.6487C5.38445 21.5894 5.49089 21.5658 5.59652 21.5658C5.70214 21.5658 5.80817 21.5894 5.89064 21.6487L7.14839 22.382C7.33649 22.4884 7.4543 22.6899 7.4543 22.9028V26.5347C7.4543 26.7475 7.5713 26.949 7.75899 27.0555L10.6986 28.7589C10.7444 28.7878 10.7974 28.8032 10.8516 28.8032C10.9057 28.8032 10.9588 28.7878 11.0045 28.7589C11.0512 28.7333 11.0901 28.6955 11.117 28.6496C11.1439 28.6037 11.1578 28.5513 11.1573 28.4981V20.7379C11.1573 20.525 11.0395 20.3235 10.851 20.2167L5.87846 17.3185C5.79483 17.2737 5.70314 17.2459 5.6087 17.2368L5.56036 17.2372ZM46.4563 17.3225C46.3535 17.3225 46.2516 17.3494 46.1573 17.403L41.1718 20.2999C40.9837 20.4064 40.8671 20.6079 40.8671 20.8212V26.6062C40.8671 26.819 40.9837 27.0205 41.1718 27.127L46.1216 29.9655C46.2107 30.0177 46.3122 30.0453 46.4155 30.0453C46.5188 30.0453 46.6203 30.0177 46.7094 29.9655L49.7076 28.2864C49.7542 28.2608 49.7929 28.223 49.8198 28.1771C49.8466 28.1311 49.8605 28.0788 49.8599 28.0256C49.8603 27.9726 49.8464 27.9204 49.8195 27.8746C49.7927 27.8288 49.754 27.7912 49.7076 27.7656L44.6997 24.8666C44.6542 24.8399 44.6162 24.8019 44.5896 24.7563C44.5629 24.7107 44.5484 24.659 44.5474 24.6062V22.7959C44.5468 22.7429 44.5606 22.6906 44.5875 22.6448C44.6143 22.599 44.6531 22.5614 44.6997 22.5359L46.2638 21.6365C46.3095 21.6076 46.3626 21.5922 46.4167 21.5922C46.4709 21.5922 46.5239 21.6076 46.5697 21.6365L48.1321 22.5355C48.1778 22.5622 48.216 22.6001 48.2428 22.6457C48.2697 22.6913 48.2845 22.743 48.2857 22.7959V24.2158C48.2857 24.3226 48.3442 24.4291 48.438 24.4762C48.4838 24.5052 48.5369 24.5207 48.5912 24.5207C48.6454 24.5207 48.6985 24.5052 48.7443 24.4762L51.7063 22.7374C51.7971 22.6844 51.8722 22.6082 51.9239 22.5167C51.9756 22.4251 52.002 22.3214 52.0004 22.2162V20.8086C52.0004 20.5957 51.8826 20.3954 51.7063 20.2886L46.7566 17.4026C46.6652 17.3503 46.5619 17.3226 46.4567 17.3221L46.4563 17.3225ZM32.8076 21.6426C32.834 21.6426 32.8608 21.6487 32.8847 21.6609L34.5885 22.6546C34.6357 22.6781 34.6596 22.7366 34.6596 22.7842V24.7715C34.6596 24.8309 34.6357 24.8788 34.5885 24.9024L32.8843 25.896C32.8604 25.9077 32.8342 25.9138 32.8076 25.9138C32.7809 25.9138 32.7547 25.9077 32.7308 25.896L31.0266 24.9024C30.9794 24.8788 30.9555 24.8191 30.9555 24.7715V22.7842C30.9555 22.7249 30.9798 22.6781 31.0266 22.6542L32.7308 21.6609C32.7547 21.6489 32.7808 21.6426 32.8076 21.6426Z" fill="#333333"/>
<path d="M19.493 17.4253C19.4017 17.373 19.2984 17.3455 19.1932 17.3455C19.088 17.3455 18.9846 17.373 18.8934 17.4253L13.9436 20.3003C13.8528 20.3531 13.7777 20.4292 13.726 20.5206C13.6743 20.6121 13.6479 20.7157 13.6495 20.8207V26.5818C13.6495 26.795 13.7673 26.9961 13.9436 27.1026L18.8934 29.9772C18.9846 30.0295 19.088 30.057 19.1932 30.057C19.2984 30.057 19.4017 30.0295 19.493 29.9772L24.4423 27.1026C24.6304 26.9961 24.7365 26.795 24.7365 26.5818V20.8207C24.7365 20.6079 24.6186 20.4064 24.4423 20.3003L19.493 17.4253Z" fill="url(#paint0_linear_478_9)"/>
<path d="M24.4535 20.3004L19.4806 17.4254C19.4318 17.4006 19.3806 17.3809 19.3278 17.3665L13.7549 26.9605C13.802 27.0198 13.8605 27.0669 13.9194 27.1026L18.8927 29.9773C19.0337 30.0601 19.1982 30.0837 19.351 30.0362L24.5831 20.4068C24.5486 20.3618 24.5043 20.3254 24.4535 20.3004Z" fill="url(#paint1_linear_478_9)"/>
<path d="M24.4539 27.1022C24.5952 27.0193 24.7009 26.8775 24.748 26.7236L19.3042 17.3542C19.1637 17.3307 19.0105 17.3424 18.8813 17.4253L13.9434 20.2882L19.2693 30.0597C19.3396 30.0479 19.422 30.0243 19.4927 29.9886L24.4539 27.1022Z" fill="url(#paint2_linear_478_9)"/>
</g>
<defs>
<linearGradient id="paint0_linear_478_9" x1="21.2087" y1="19.5661" x2="16.6884" y2="28.7302" gradientUnits="userSpaceOnUse">
<stop stop-color="#3F873F"/>
<stop offset="0.33" stop-color="#3F8B3D"/>
<stop offset="0.637" stop-color="#3E9638"/>
<stop offset="0.934" stop-color="#3DA92E"/>
<stop offset="1" stop-color="#3DAE2B"/>
</linearGradient>
<linearGradient id="paint1_linear_478_9" x1="18.4404" y1="24.3741" x2="31.0525" y2="15.1129" gradientUnits="userSpaceOnUse">
<stop offset="0.138" stop-color="#3F873F"/>
<stop offset="0.402" stop-color="#52A044"/>
<stop offset="0.713" stop-color="#64B749"/>
<stop offset="0.908" stop-color="#6ABF4B"/>
</linearGradient>
<linearGradient id="paint2_linear_478_9" x1="13.4682" y1="23.6993" x2="24.9213" y2="23.6993" gradientUnits="userSpaceOnUse">
<stop offset="0.092" stop-color="#6ABF4B"/>
<stop offset="0.287" stop-color="#64B749"/>
<stop offset="0.598" stop-color="#52A044"/>
<stop offset="0.862" stop-color="#3F873F"/>
</linearGradient>
<clipPath id="clip0_478_9">
<rect width="52" height="52" fill="white"/>
</clipPath>
</defs>
</svg>
