<svg width="62" height="52" viewBox="0 0 62 52" fill="none" xmlns="http://www.w3.org/2000/svg">
<g clip-path="url(#clip0_241_229)">
<path d="M53.4721 38.4541C57.7759 38.4541 59.3673 35.9364 60.863 32.1621C62.413 28.2751 62.3458 24.5354 60.863 19.5564C59.7961 15.9706 57.7785 13.2644 53.4721 13.2644H47.9257V18.7699C47.9257 23.0404 43.6063 26.6392 38.6825 26.6392H23.9007C19.8578 26.6392 16.5098 29.5404 16.5098 32.9421V44.7591C16.5098 48.1239 19.9973 50.0977 23.9007 51.0619C28.5765 52.2102 33.0767 52.4182 38.6799 51.0619C42.4025 50.1562 46.0708 48.3319 46.0708 44.7591V40.0336H31.3019V38.4562H53.4721V38.4541ZM39.6073 43.1796C41.1418 43.1796 42.3896 44.2369 42.3896 45.5369C42.3896 46.8499 41.1444 47.9051 39.6073 47.9051C38.865 47.8977 38.1562 47.6447 37.6352 47.2012C37.1142 46.7577 36.823 46.1595 36.8251 45.5369C36.8251 44.9158 37.1173 44.3198 37.6383 43.8784C38.1592 43.437 38.8668 43.1859 39.6073 43.1796Z" fill="#F2BB30"/>
<path d="M8.89711 38.4562H13.9759V32.7904C13.9759 28.6932 18.1971 25.0814 23.2191 25.0814H37.9984C42.1084 25.0814 45.3893 22.2387 45.3893 18.7785V6.95286C45.3893 3.58803 42.0129 1.06603 37.9984 0.500528C33.0435 -0.186305 27.6599 -0.147305 23.2191 0.513528L23.2217 0.511361C16.9649 1.43869 15.8334 3.37569 15.8334 6.96153V11.687H30.6281V13.2665H10.2818C5.97794 13.2665 2.21144 15.4375 1.03861 19.5585C-0.317642 24.284 -0.371892 27.2307 1.03861 32.1642C2.08744 35.8324 4.59586 38.4562 8.89711 38.4562ZM22.2943 8.5302C21.5529 8.52618 20.8437 8.27578 20.3222 7.83388C19.8006 7.39198 19.5093 6.79465 19.512 6.17286C19.5093 5.55006 19.8002 4.9516 20.3214 4.50798C20.8426 4.06436 21.5517 3.81155 22.2943 3.80469C23.8184 3.80469 25.0765 4.87069 25.0765 6.17286C25.0765 7.47503 23.8314 8.5302 22.2943 8.5302Z" fill="#35668F"/>
</g>
<defs>
<clipPath id="clip0_241_229">
<rect width="62" height="52" fill="white"/>
</clipPath>
</defs>
</svg>
