<svg width="41" height="40" viewBox="0 0 41 40" fill="none" xmlns="http://www.w3.org/2000/svg">
<path d="M34.3027 5.81511C32.4606 3.9643 30.2669 2.49698 27.8494 1.49863C25.4319 0.500287 22.839 -0.00911066 20.2218 0.000123326C9.25497 0.000123326 0.317253 8.89509 0.307208 19.8151C0.307208 23.3126 1.22634 26.715 2.96165 29.7275L0.146484 40L10.704 37.245C13.6246 38.8273 16.8967 39.6567 20.2218 39.6575H20.2319C31.2012 39.6575 40.1364 30.7625 40.1465 19.8326C40.149 17.2277 39.6337 14.648 38.6303 12.2423C37.6269 9.83652 36.1578 7.65218 34.3027 5.81511ZM20.2218 36.3025C17.256 36.3035 14.3446 35.509 11.7939 34.0025L11.1912 33.6425L4.928 35.2775L6.60053 29.195L6.20876 28.5675C4.55082 25.9434 3.67397 22.9051 3.67988 19.8051C3.67988 10.7401 11.1058 3.34511 20.2319 3.34511C22.406 3.34123 24.5594 3.7658 26.5679 4.59434C28.5765 5.42288 30.4004 6.639 31.9345 8.1726C33.474 9.70022 34.6945 11.5162 35.5255 13.5157C36.3565 15.5152 36.7816 17.6587 36.7763 19.8226C36.7663 28.92 29.3404 36.3025 20.2218 36.3025ZM29.3002 23.9676C28.8054 23.7201 26.3619 22.5226 25.9024 22.3526C25.4453 22.1901 25.1113 22.1051 24.7848 22.6001C24.4508 23.0926 23.4966 24.215 23.2103 24.5375C22.924 24.87 22.6276 24.9075 22.1304 24.6625C21.6357 24.4125 20.031 23.8926 18.1324 22.2001C16.6507 20.8876 15.6588 19.2626 15.3625 18.7701C15.0762 18.2751 15.3348 18.0101 15.5834 17.7626C15.8019 17.5426 16.0782 17.1826 16.3268 16.8976C16.5779 16.6126 16.6608 16.4026 16.824 16.0726C16.9873 15.7376 16.9094 15.4526 16.7864 15.2051C16.6608 14.9576 15.6688 12.5151 15.2494 11.5301C14.8476 10.5576 14.4383 10.6926 14.1319 10.6801C13.8456 10.6626 13.5116 10.6626 13.1776 10.6626C12.9254 10.6688 12.6772 10.7269 12.4486 10.8332C12.22 10.9394 12.0159 11.0916 11.8491 11.2801C11.3921 11.7751 10.1138 12.9726 10.1138 15.4151C10.1138 17.8576 11.8969 20.2051 12.148 20.5376C12.3941 20.8701 15.6487 25.8675 20.6437 28.0175C21.824 28.53 22.7532 28.8325 23.479 29.0625C24.6718 29.4425 25.7492 29.385 26.6081 29.2625C27.5623 29.1175 29.5488 28.0625 29.9682 26.905C30.38 25.745 30.38 24.755 30.2545 24.5476C30.1314 24.3376 29.7974 24.215 29.3002 23.9676Z" fill="#DEC127"/>
</svg>
